<svg width="64" height="64" viewBox="0 0 64 64" fill="none" xmlns="http://www.w3.org/2000/svg">
<path d="M32 4C35.031 4 37.9379 5.05357 40.0812 6.92893C42.2245 8.8043 43.4286 11.3478 43.4286 14V16H20.5714V14C20.5714 11.3478 21.7755 8.8043 23.9188 6.92893C26.0621 5.05357 28.969 4 32 4ZM48 16V14C48 10.287 46.3143 6.72601 43.3137 4.1005C40.3131 1.475 36.2435 0 32 0C27.7565 0 23.6869 1.475 20.6863 4.1005C17.6857 6.72601 16 10.287 16 14V16H0V56C0 58.1217 0.963263 60.1566 2.67788 61.6569C4.3925 63.1571 6.71802 64 9.14286 64H54.8571C57.282 64 59.6075 63.1571 61.3221 61.6569C63.0367 60.1566 64 58.1217 64 56V16H48Z" fill="white"/>
</svg>
