<svg width="64" height="64" viewBox="0 0 64 64" fill="none" xmlns="http://www.w3.org/2000/svg">
<path fill-rule="evenodd" clip-rule="evenodd" d="M8 18C8 17.4696 8.21071 16.9609 8.58579 16.5858C8.96086 16.2107 9.46957 16 10 16H54C54.5304 16 55.0391 16.2107 55.4142 16.5858C55.7893 16.9609 56 17.4696 56 18C56 18.5304 55.7893 19.0391 55.4142 19.4142C55.0391 19.7893 54.5304 20 54 20H10C9.46957 20 8.96086 19.7893 8.58579 19.4142C8.21071 19.0391 8 18.5304 8 18ZM8 32C8 31.4696 8.21071 30.9609 8.58579 30.5858C8.96086 30.2107 9.46957 30 10 30H54C54.5304 30 55.0391 30.2107 55.4142 30.5858C55.7893 30.9609 56 31.4696 56 32C56 32.5304 55.7893 33.0391 55.4142 33.4142C55.0391 33.7893 54.5304 34 54 34H10C9.46957 34 8.96086 33.7893 8.58579 33.4142C8.21071 33.0391 8 32.5304 8 32ZM8 46C8 45.4696 8.21071 44.9609 8.58579 44.5858C8.96086 44.2107 9.46957 44 10 44H54C54.5304 44 55.0391 44.2107 55.4142 44.5858C55.7893 44.9609 56 45.4696 56 46C56 46.5304 55.7893 47.0391 55.4142 47.4142C55.0391 47.7893 54.5304 48 54 48H10C9.46957 48 8.96086 47.7893 8.58579 47.4142C8.21071 47.0391 8 46.5304 8 46Z" fill="white"/>
</svg>
