<svg width="48" height="12" viewBox="0 0 48 12" fill="none" xmlns="http://www.w3.org/2000/svg">
<path fill-rule="evenodd" clip-rule="evenodd" d="M10.6667 5.99996C10.6667 7.41445 10.1048 8.771 9.10457 9.77119C8.10438 10.7714 6.74782 11.3333 5.33333 11.3333C3.91885 11.3333 2.56229 10.7714 1.5621 9.77119C0.561903 8.771 0 7.41445 0 5.99996C0 4.58547 0.561903 3.22892 1.5621 2.22872C2.56229 1.22853 3.91885 0.666626 5.33333 0.666626C6.74782 0.666626 8.10438 1.22853 9.10457 2.22872C10.1048 3.22892 10.6667 4.58547 10.6667 5.99996ZM24 0.666626C25.4145 0.666626 26.771 1.22853 27.7712 2.22872C28.7714 3.22892 29.3333 4.58547 29.3333 5.99996C29.3333 7.41445 28.7714 8.771 27.7712 9.77119C26.771 10.7714 25.4145 11.3333 24 11.3333C22.5855 11.3333 21.229 10.7714 20.2288 9.77119C19.2286 8.771 18.6667 7.41445 18.6667 5.99996C18.6667 4.58547 19.2286 3.22892 20.2288 2.22872C21.229 1.22853 22.5855 0.666626 24 0.666626ZM42.6667 0.666626C44.0812 0.666626 45.4377 1.22853 46.4379 2.22872C47.4381 3.22892 48 4.58547 48 5.99996C48 7.41445 47.4381 8.771 46.4379 9.77119C45.4377 10.7714 44.0812 11.3333 42.6667 11.3333C41.2522 11.3333 39.8956 10.7714 38.8954 9.77119C37.8952 8.771 37.3333 7.41445 37.3333 5.99996C37.3333 4.58547 37.8952 3.22892 38.8954 2.22872C39.8956 1.22853 41.2522 0.666626 42.6667 0.666626Z" fill="white"/>
</svg>
