<svg width="64" height="64" viewBox="0 0 64 64" fill="none" xmlns="http://www.w3.org/2000/svg">
<path d="M9.4 9.4C12.3607 6.41975 15.8819 4.05484 19.7606 2.44154C23.6394 0.828245 27.7991 -0.0015392 32 2.14336e-06C40.4869 2.14336e-06 48.6263 3.37142 54.6274 9.37259C60.6286 15.3737 64 23.5131 64 32C64 40.4869 60.6286 48.6263 54.6274 54.6274C48.6263 60.6286 40.4869 64 32 64C17.08 64 4.64 53.8 1.08 40H9.4C11.0477 44.6781 14.1066 48.7295 18.1546 51.5954C22.2026 54.4612 27.0402 56.0002 32 56C38.3652 56 44.4697 53.4714 48.9706 48.9706C53.4714 44.4697 56 38.3652 56 32C56 25.6348 53.4714 19.5303 48.9706 15.0294C44.4697 10.5286 38.3652 8 32 8C25.36 8 19.44 10.76 15.12 15.12L28 28H-3.33786e-06V2.14336e-06L9.4 9.4Z" fill="white"/>
</svg>
