<svg width="64" height="64" viewBox="0 0 64 64" fill="none" xmlns="http://www.w3.org/2000/svg">
<g clip-path="url(#clip0_89_636)">
<path fill-rule="evenodd" clip-rule="evenodd" d="M50.5382 1.09185C51.1383 0.392738 51.9521 0 52.8006 0C53.6491 0 54.4629 0.392738 55.063 1.09185L63.063 10.4147C63.6629 11.114 63.9999 12.0624 63.9999 13.0512C63.9999 14.0401 63.6629 14.9884 63.063 15.6877L55.063 25.0106C54.7678 25.3668 54.4147 25.6509 54.0243 25.8463C53.6339 26.0418 53.214 26.1447 52.7891 26.149C52.3642 26.1533 51.9428 26.0589 51.5496 25.8714C51.1563 25.6839 50.799 25.407 50.4985 25.0569C50.1981 24.7067 49.9605 24.2903 49.7996 23.832C49.6387 23.3737 49.5577 22.8827 49.5614 22.3875C49.5651 21.8924 49.6534 21.403 49.8211 20.9481C49.9888 20.4931 50.2326 20.0816 50.5382 19.7376L56.2758 13.0512L50.5382 6.36487C49.9383 5.66555 49.6013 4.71719 49.6013 3.72836C49.6013 2.73952 49.9383 1.79117 50.5382 1.09185ZM50.5382 38.9428C51.1383 38.2436 51.9521 37.8509 52.8006 37.8509C53.6491 37.8509 54.4629 38.2436 55.063 38.9428L63.063 48.2656C63.6629 48.965 63.9999 49.9133 63.9999 50.9021C63.9999 51.891 63.6629 52.8393 63.063 53.5387L55.063 62.8615C54.7678 63.2177 54.4147 63.5018 54.0243 63.6972C53.6339 63.8927 53.214 63.9956 52.7891 63.9999C52.3642 64.0042 51.9428 63.9098 51.5496 63.7223C51.1563 63.5348 50.799 63.2579 50.4985 62.9078C50.1981 62.5576 49.9605 62.1412 49.7996 61.6829C49.6387 61.2247 49.5577 60.7336 49.5614 60.2384C49.5651 59.7433 49.6534 59.2539 49.8211 58.799C49.9888 58.344 50.2326 57.9325 50.5382 57.5885L56.2758 50.9021L50.5382 44.2158C49.9383 43.5165 49.6013 42.5681 49.6013 41.5793C49.6013 40.5904 49.9383 39.6421 50.5382 38.9428Z" fill="#FEEAEA"/>
<path fill-rule="evenodd" clip-rule="evenodd" d="M54.5729 9.37045C55.6993 9.45622 56.6753 9.5308 57.6001 9.5308C58.4488 9.5308 59.2627 9.92369 59.8629 10.623C60.463 11.3224 60.8001 12.2709 60.8001 13.26C60.8001 14.249 60.463 15.1975 59.8629 15.8969C59.2627 16.5962 58.4488 16.9891 57.6001 16.9891C56.4929 16.9891 55.1169 16.8847 53.8113 16.7877C53.1652 16.7356 52.5188 16.6896 51.8721 16.6498C49.9073 16.5379 48.2945 16.5752 47.1297 16.8921C42.4705 18.1638 37.3057 22.415 33.0689 32.2451C37.2417 41.7731 42.3489 45.4052 47.1297 46.7105C48.2945 47.0274 49.9073 47.061 51.8721 46.9491C52.4673 46.9156 53.1297 46.8671 53.8113 46.8149C55.0721 46.7006 56.3357 46.6322 57.6001 46.6098C58.4488 46.6098 59.2627 47.0027 59.8629 47.702C60.463 48.4014 60.8001 49.3499 60.8001 50.3389C60.8001 51.328 60.463 52.2765 59.8629 52.9758C59.2627 53.6752 58.4488 54.0681 57.6001 54.0681C56.6753 54.0681 55.6993 54.1427 54.5729 54.2322C53.8465 54.2881 53.0593 54.3515 52.1825 54.4C50.1665 54.5118 47.7761 54.5491 45.6705 53.9711C39.8721 52.39 34.3137 48.4035 29.7601 40.4194C27.9905 44.2231 25.9937 47.2139 23.5936 49.47C20.464 52.4086 16.8096 53.5945 13.312 54.0942C10.4896 54.4969 7.52002 54.4746 4.86401 54.4522L3.20001 54.4447C2.35131 54.4447 1.53738 54.0518 0.93726 53.3525C0.337142 52.6531 0 51.7046 0 50.7156C0 49.7265 0.337142 48.778 0.93726 48.0787C1.53738 47.3793 2.35131 46.9864 3.20001 46.9864L5.06241 46.9939C7.69922 47.0125 10.16 47.0312 12.5344 46.6955C15.3888 46.2853 17.7312 45.3978 19.5776 43.6637C21.776 41.5978 23.8112 38.2677 25.8561 32.6627L26.0033 32.2563L25.8561 31.8498C23.7728 26.1442 21.6864 22.5455 19.408 20.2782C17.616 18.4994 15.3216 17.5709 12.4928 17.1271C10.0512 16.7467 7.49442 16.7579 4.74881 16.7728L3.20001 16.7765C2.35131 16.7765 1.53738 16.3837 0.93726 15.6843C0.337142 14.9849 0 14.0364 0 13.0474C0 12.0584 0.337142 11.1098 0.93726 10.4105C1.53738 9.71113 2.35131 9.31824 3.20001 9.31824L4.62401 9.31451C7.35361 9.29959 10.4256 9.27722 13.3408 9.7359C16.8416 10.2804 20.4896 11.5483 23.5616 14.6024C25.9617 16.9891 27.9617 20.1253 29.7377 23.9999C34.2433 15.8443 39.7729 11.2425 45.6705 9.63149C47.7761 9.0572 50.1665 9.09076 52.1825 9.20263C53.0593 9.25111 53.8465 9.31451 54.5729 9.37045Z" fill="white"/>
</g>
<defs>
<clipPath id="clip0_89_636">
<rect width="64" height="64" fill="white"/>
</clipPath>
</defs>
</svg>
