<svg width="53" height="52" viewBox="0 0 53 52" fill="none" xmlns="http://www.w3.org/2000/svg">
<path fill-rule="evenodd" clip-rule="evenodd" d="M2 0C2.53043 0 3.03914 0.210713 3.41421 0.585786C3.78929 0.960859 4 1.46957 4 2V3.44L8.90133 2.21333C14.9224 0.707889 21.2834 1.40594 26.8347 4.18133L27.1227 4.32533C31.7258 6.62721 36.9902 7.24245 42 6.064L50.2933 4.112C50.6044 4.03905 50.9284 4.04167 51.2382 4.11965C51.548 4.19763 51.8346 4.3487 52.0741 4.5602C52.3135 4.77171 52.4988 5.0375 52.6144 5.33532C52.7301 5.63314 52.7727 5.95433 52.7387 6.272C51.7463 15.4339 51.7508 24.6764 52.752 33.8373C52.8053 34.3229 52.6791 34.8112 52.3971 35.2101C52.1151 35.609 51.6969 35.891 51.2213 36.0027L42.9173 37.9573C36.9963 39.3509 30.774 38.6243 25.3333 35.904L25.0453 35.76C20.3486 33.4114 14.9666 32.8202 9.872 34.0933L4 35.56V50C4 50.5304 3.78929 51.0391 3.41421 51.4142C3.03914 51.7893 2.53043 52 2 52C1.46957 52 0.960859 51.7893 0.585786 51.4142C0.210713 51.0391 0 50.5304 0 50V2C0 1.73736 0.0517313 1.47728 0.152241 1.23463C0.25275 0.991982 0.400069 0.771503 0.585786 0.585786C0.771503 0.400069 0.991982 0.25275 1.23463 0.152241C1.47728 0.0517313 1.73736 0 2 0Z" fill="white"/>
</svg>
