<svg width="64" height="64" viewBox="0 0 64 64" fill="none" xmlns="http://www.w3.org/2000/svg">
<rect width="64" height="64" rx="10" fill="#FDD99D"/>
<path d="M15.3027 32.104C15.3027 28.776 16.0228 25.816 17.4628 23.224C18.9028 20.6 20.9028 18.568 23.4628 17.128C26.0548 15.656 28.9828 14.92 32.2468 14.92C36.2468 14.92 39.6708 15.976 42.5188 18.088C45.3668 20.2 47.2708 23.08 48.2308 26.728H39.2068C38.5348 25.32 37.5748 24.248 36.3268 23.512C35.1108 22.776 33.7188 22.408 32.1508 22.408C29.6228 22.408 27.5748 23.288 26.0068 25.048C24.4388 26.808 23.6548 29.16 23.6548 32.104C23.6548 35.048 24.4388 37.4 26.0068 39.16C27.5748 40.92 29.6228 41.8 32.1508 41.8C33.7188 41.8 35.1108 41.432 36.3268 40.696C37.5748 39.96 38.5348 38.888 39.2068 37.48H48.2308C47.2708 41.128 45.3668 44.008 42.5188 46.12C39.6708 48.2 36.2468 49.24 32.2468 49.24C28.9828 49.24 26.0548 48.52 23.4628 47.08C20.9028 45.608 18.9028 43.576 17.4628 40.984C16.0228 38.392 15.3027 35.432 15.3027 32.104Z" fill="black"/>
<path d="M57.2122 49.92H53.9722V51.63C54.1122 51.4567 54.3122 51.3167 54.5722 51.21C54.8322 51.0967 55.1089 51.04 55.4022 51.04C55.9356 51.04 56.3722 51.1567 56.7122 51.39C57.0522 51.6233 57.2989 51.9233 57.4522 52.29C57.6056 52.65 57.6822 53.0367 57.6822 53.45C57.6822 54.2167 57.4622 54.8333 57.0222 55.3C56.5889 55.7667 55.9689 56 55.1622 56C54.4022 56 53.7956 55.81 53.3422 55.43C52.8889 55.05 52.6322 54.5533 52.5722 53.94H53.9322C53.9922 54.2067 54.1256 54.42 54.3322 54.58C54.5456 54.74 54.8156 54.82 55.1422 54.82C55.5356 54.82 55.8322 54.6967 56.0322 54.45C56.2322 54.2033 56.3322 53.8767 56.3322 53.47C56.3322 53.0567 56.2289 52.7433 56.0222 52.53C55.8222 52.31 55.5256 52.2 55.1322 52.2C54.8522 52.2 54.6189 52.27 54.4322 52.41C54.2456 52.55 54.1122 52.7367 54.0322 52.97H52.6922V48.69H57.2122V49.92Z" fill="black"/>
</svg>
