<svg width="64" height="64" viewBox="0 0 64 64" fill="none" xmlns="http://www.w3.org/2000/svg">
<rect width="64" height="64" rx="10" fill="#FDD99D"/>
<path d="M43.787 15.304V21.88H30.059V28.984H40.331V35.368H30.059V49H21.851V15.304H43.787Z" fill="black"/>
<path d="M53.5371 52.14C52.8704 51.7933 52.5371 51.2567 52.5371 50.53C52.5371 50.17 52.6271 49.8433 52.8071 49.55C52.9938 49.25 53.2704 49.0133 53.6371 48.84C54.0104 48.66 54.4638 48.57 54.9971 48.57C55.5304 48.57 55.9804 48.66 56.3471 48.84C56.7204 49.0133 56.9971 49.25 57.1771 49.55C57.3638 49.8433 57.4571 50.17 57.4571 50.53C57.4571 50.8967 57.3671 51.22 57.1871 51.5C57.0071 51.7733 56.7671 51.9867 56.4671 52.14C56.8338 52.3 57.1204 52.5333 57.3271 52.84C57.5338 53.1467 57.6371 53.51 57.6371 53.93C57.6371 54.3833 57.5204 54.78 57.2871 55.12C57.0604 55.4533 56.7471 55.71 56.3471 55.89C55.9471 56.07 55.4971 56.16 54.9971 56.16C54.4971 56.16 54.0471 56.07 53.6471 55.89C53.2538 55.71 52.9404 55.4533 52.7071 55.12C52.4804 54.78 52.3671 54.3833 52.3671 53.93C52.3671 53.51 52.4704 53.1467 52.6771 52.84C52.8838 52.5267 53.1704 52.2933 53.5371 52.14ZM56.0971 50.73C56.0971 50.4033 55.9971 50.15 55.7971 49.97C55.6038 49.79 55.3371 49.7 54.9971 49.7C54.6638 49.7 54.3971 49.79 54.1971 49.97C54.0038 50.15 53.9071 50.4067 53.9071 50.74C53.9071 51.04 54.0071 51.28 54.2071 51.46C54.4138 51.64 54.6771 51.73 54.9971 51.73C55.3171 51.73 55.5804 51.64 55.7871 51.46C55.9938 51.2733 56.0971 51.03 56.0971 50.73ZM54.9971 52.75C54.6171 52.75 54.3071 52.8467 54.0671 53.04C53.8338 53.2333 53.7171 53.51 53.7171 53.87C53.7171 54.2033 53.8304 54.4767 54.0571 54.69C54.2904 54.8967 54.6038 55 54.9971 55C55.3904 55 55.7004 54.8933 55.9271 54.68C56.1538 54.4667 56.2671 54.1967 56.2671 53.87C56.2671 53.5167 56.1504 53.2433 55.9171 53.05C55.6838 52.85 55.3771 52.75 54.9971 52.75Z" fill="black"/>
</svg>
