<svg width="64" height="64" viewBox="0 0 64 64" fill="none" xmlns="http://www.w3.org/2000/svg">
<rect width="64" height="64" rx="10" fill="#FDD99D"/>
<path d="M39.0627 25.96C38.4548 24.84 37.5748 23.992 36.4228 23.416C35.3028 22.808 33.9748 22.504 32.4388 22.504C29.7828 22.504 27.6548 23.384 26.0547 25.144C24.4548 26.872 23.6548 29.192 23.6548 32.104C23.6548 35.208 24.4868 37.64 26.1508 39.4C27.8468 41.128 30.1668 41.992 33.1108 41.992C35.1268 41.992 36.8228 41.48 38.1988 40.456C39.6068 39.432 40.6308 37.96 41.2708 36.04H30.8548V29.992H48.7108V37.624C48.1028 39.672 47.0628 41.576 45.5908 43.336C44.1508 45.096 42.3108 46.52 40.0708 47.608C37.8308 48.696 35.3028 49.24 32.4868 49.24C29.1588 49.24 26.1828 48.52 23.5588 47.08C20.9668 45.608 18.9348 43.576 17.4628 40.984C16.0228 38.392 15.3027 35.432 15.3027 32.104C15.3027 28.776 16.0228 25.816 17.4628 23.224C18.9348 20.6 20.9668 18.568 23.5588 17.128C26.1508 15.656 29.1108 14.92 32.4388 14.92C36.4708 14.92 39.8628 15.896 42.6148 17.848C45.3988 19.8 47.2388 22.504 48.1348 25.96H39.0627Z" fill="black"/>
<path d="M53.0989 54.42C53.7389 53.8867 54.2489 53.4433 54.6289 53.09C55.0089 52.73 55.3256 52.3567 55.5789 51.97C55.8322 51.5833 55.9589 51.2033 55.9589 50.83C55.9589 50.49 55.8789 50.2233 55.7189 50.03C55.5589 49.8367 55.3122 49.74 54.9789 49.74C54.6456 49.74 54.3889 49.8533 54.2089 50.08C54.0289 50.3 53.9356 50.6033 53.9289 50.99H52.5689C52.5956 50.19 52.8322 49.5833 53.2789 49.17C53.7322 48.7567 54.3056 48.55 54.9989 48.55C55.7589 48.55 56.3422 48.7533 56.7489 49.16C57.1556 49.56 57.3589 50.09 57.3589 50.75C57.3589 51.27 57.2189 51.7667 56.9389 52.24C56.6589 52.7133 56.3389 53.1267 55.9789 53.48C55.6189 53.8267 55.1489 54.2467 54.5689 54.74H57.5189V55.9H52.5789V54.86L53.0989 54.42Z" fill="black"/>
</svg>
