<svg width="64" height="64" viewBox="0 0 64 64" fill="none" xmlns="http://www.w3.org/2000/svg">
<rect width="64" height="64" rx="10" fill="#FDD99D"/>
<path d="M46.6053 15.304V49H38.3973V35.128H25.6293V49H17.4213V15.304H25.6293V28.504H38.3973V15.304H46.6053Z" fill="black"/>
<path d="M52.5568 50.63C52.5902 49.9633 52.8235 49.45 53.2568 49.09C53.6968 48.7233 54.2735 48.54 54.9868 48.54C55.4735 48.54 55.8902 48.6267 56.2368 48.8C56.5835 48.9667 56.8435 49.1967 57.0168 49.49C57.1968 49.7767 57.2868 50.1033 57.2868 50.47C57.2868 50.89 57.1768 51.2467 56.9568 51.54C56.7435 51.8267 56.4868 52.02 56.1868 52.12V52.16C56.5735 52.28 56.8735 52.4933 57.0868 52.8C57.3068 53.1067 57.4168 53.5 57.4168 53.98C57.4168 54.38 57.3235 54.7367 57.1368 55.05C56.9568 55.3633 56.6868 55.61 56.3268 55.79C55.9735 55.9633 55.5468 56.05 55.0468 56.05C54.2935 56.05 53.6802 55.86 53.2068 55.48C52.7335 55.1 52.4835 54.54 52.4568 53.8H53.8168C53.8302 54.1267 53.9402 54.39 54.1468 54.59C54.3602 54.7833 54.6502 54.88 55.0168 54.88C55.3568 54.88 55.6168 54.7867 55.7968 54.6C55.9835 54.4067 56.0768 54.16 56.0768 53.86C56.0768 53.46 55.9502 53.1733 55.6968 53C55.4435 52.8267 55.0502 52.74 54.5168 52.74H54.2268V51.59H54.5168C55.4635 51.59 55.9368 51.2733 55.9368 50.64C55.9368 50.3533 55.8502 50.13 55.6768 49.97C55.5102 49.81 55.2668 49.73 54.9468 49.73C54.6335 49.73 54.3902 49.8167 54.2168 49.99C54.0502 50.1567 53.9535 50.37 53.9268 50.63H52.5568Z" fill="black"/>
</svg>
