<svg width="64" height="64" viewBox="0 0 64 64" fill="none" xmlns="http://www.w3.org/2000/svg">
<rect width="64" height="64" rx="10" fill="#FDD99D"/>
<path d="M42.221 15.304V38.248C42.221 41.8 41.213 44.536 39.197 46.456C37.213 48.376 34.525 49.336 31.133 49.336C27.581 49.336 24.733 48.328 22.589 46.312C20.445 44.296 19.373 41.432 19.373 37.72H27.533C27.533 39.128 27.821 40.2 28.397 40.936C28.973 41.64 29.805 41.992 30.893 41.992C31.885 41.992 32.653 41.672 33.197 41.032C33.741 40.392 34.013 39.464 34.013 38.248V15.304H42.221Z" fill="black"/>
<path d="M52.1643 54.58V53.48L55.4343 48.8H57.0643V53.36H57.9443V54.58H57.0643V56H55.6643V54.58H52.1643ZM55.7543 50.3L53.7043 53.36H55.7543V50.3Z" fill="black"/>
</svg>
