<svg width="64" height="64" viewBox="0 0 64 64" fill="none" xmlns="http://www.w3.org/2000/svg">
<rect width="64" height="64" rx="10" fill="#FDD99D"/>
<path d="M32.0448 49.336C28.8768 49.336 25.9648 48.6 23.3088 47.128C20.6848 45.656 18.5888 43.608 17.0208 40.984C15.4848 38.328 14.7168 35.352 14.7168 32.056C14.7168 28.76 15.4848 25.8 17.0208 23.176C18.5888 20.552 20.6848 18.504 23.3088 17.032C25.9648 15.56 28.8768 14.824 32.0448 14.824C35.2128 14.824 38.1088 15.56 40.7328 17.032C43.3888 18.504 45.4688 20.552 46.9728 23.176C48.5088 25.8 49.2768 28.76 49.2768 32.056C49.2768 35.352 48.5088 38.328 46.9728 40.984C45.4368 43.608 43.3568 45.656 40.7328 47.128C38.1088 48.6 35.2128 49.336 32.0448 49.336ZM32.0448 41.848C34.7328 41.848 36.8768 40.952 38.4768 39.16C40.1088 37.368 40.9248 35 40.9248 32.056C40.9248 29.08 40.1088 26.712 38.4768 24.952C36.8768 23.16 34.7328 22.264 32.0448 22.264C29.3248 22.264 27.1488 23.144 25.5168 24.904C23.9168 26.664 23.1168 29.048 23.1168 32.056C23.1168 35.032 23.9168 37.416 25.5168 39.208C27.1488 40.968 29.3248 41.848 32.0448 41.848Z" fill="black"/>
<path d="M53.0989 54.42C53.7389 53.8867 54.2489 53.4433 54.6289 53.09C55.0089 52.73 55.3256 52.3567 55.5789 51.97C55.8322 51.5833 55.9589 51.2033 55.9589 50.83C55.9589 50.49 55.8789 50.2233 55.7189 50.03C55.5589 49.8367 55.3122 49.74 54.9789 49.74C54.6456 49.74 54.3889 49.8533 54.2089 50.08C54.0289 50.3 53.9356 50.6033 53.9289 50.99H52.5689C52.5956 50.19 52.8322 49.5833 53.2789 49.17C53.7322 48.7567 54.3056 48.55 54.9989 48.55C55.7589 48.55 56.3422 48.7533 56.7489 49.16C57.1556 49.56 57.3589 50.09 57.3589 50.75C57.3589 51.27 57.2189 51.7667 56.9389 52.24C56.6589 52.7133 56.3389 53.1267 55.9789 53.48C55.6189 53.8267 55.1489 54.2467 54.5689 54.74H57.5189V55.9H52.5789V54.86L53.0989 54.42Z" fill="black"/>
</svg>
