<svg width="64" height="64" viewBox="0 0 64 64" fill="none" xmlns="http://www.w3.org/2000/svg">
<rect width="64" height="64" rx="10" fill="#FDD99D"/>
<path d="M40.0619 54.76L35.7419 48.952C34.4619 49.208 33.2139 49.336 31.9979 49.336C28.8299 49.336 25.9179 48.6 23.2619 47.128C20.6379 45.656 18.5419 43.608 16.9739 40.984C15.4379 38.328 14.6699 35.352 14.6699 32.056C14.6699 28.76 15.4379 25.8 16.9739 23.176C18.5419 20.552 20.6379 18.504 23.2619 17.032C25.9179 15.56 28.8299 14.824 31.9979 14.824C35.1659 14.824 38.0619 15.56 40.6859 17.032C43.3419 18.504 45.4219 20.552 46.9259 23.176C48.4619 25.8 49.2299 28.76 49.2299 32.056C49.2299 34.936 48.6379 37.576 47.4539 39.976C46.3019 42.344 44.6859 44.312 42.6059 45.88L49.9979 54.76H40.0619ZM23.0699 32.056C23.0699 35.032 23.8699 37.416 25.4699 39.208C27.1019 40.968 29.2779 41.848 31.9979 41.848C34.6859 41.848 36.8299 40.952 38.4299 39.16C40.0619 37.368 40.8779 35 40.8779 32.056C40.8779 29.08 40.0619 26.712 38.4299 24.952C36.8299 23.16 34.6859 22.264 31.9979 22.264C29.2779 22.264 27.1019 23.144 25.4699 24.904C23.8699 26.664 23.0699 29.048 23.0699 32.056Z" fill="black"/>
<path d="M52.3161 50V48.71H54.7261V56H53.2861V50H52.3161ZM56.1091 52.26C56.1091 51.1067 56.3158 50.2033 56.7291 49.55C57.1491 48.8967 57.8424 48.57 58.8091 48.57C59.7758 48.57 60.4658 48.8967 60.8791 49.55C61.2991 50.2033 61.5091 51.1067 61.5091 52.26C61.5091 53.42 61.2991 54.33 60.8791 54.99C60.4658 55.65 59.7758 55.98 58.8091 55.98C57.8424 55.98 57.1491 55.65 56.7291 54.99C56.3158 54.33 56.1091 53.42 56.1091 52.26ZM60.1291 52.26C60.1291 51.7667 60.0958 51.3533 60.0291 51.02C59.9691 50.68 59.8424 50.4033 59.6491 50.19C59.4624 49.9767 59.1824 49.87 58.8091 49.87C58.4358 49.87 58.1524 49.9767 57.9591 50.19C57.7724 50.4033 57.6458 50.68 57.5791 51.02C57.5191 51.3533 57.4891 51.7667 57.4891 52.26C57.4891 52.7667 57.5191 53.1933 57.5791 53.54C57.6391 53.88 57.7658 54.1567 57.9591 54.37C58.1524 54.5767 58.4358 54.68 58.8091 54.68C59.1824 54.68 59.4658 54.5767 59.6591 54.37C59.8524 54.1567 59.9791 53.88 60.0391 53.54C60.0991 53.1933 60.1291 52.7667 60.1291 52.26Z" fill="black"/>
</svg>
