<svg width="64" height="64" viewBox="0 0 64 64" fill="none" xmlns="http://www.w3.org/2000/svg">
<rect width="64" height="64" rx="10" fill="#FDD99D"/>
<path d="M36.5038 49L29.4958 36.28H27.5278V49H19.3198V15.304H33.0958C35.7518 15.304 38.0078 15.768 39.8638 16.696C41.7518 17.624 43.1598 18.904 44.0878 20.536C45.0158 22.136 45.4798 23.928 45.4798 25.912C45.4798 28.152 44.8398 30.152 43.5598 31.912C42.3118 33.672 40.4558 34.92 37.9918 35.656L45.7678 49H36.5038ZM27.5278 30.472H32.6158C34.1198 30.472 35.2398 30.104 35.9758 29.368C36.7438 28.632 37.1278 27.592 37.1278 26.248C37.1278 24.968 36.7438 23.96 35.9758 23.224C35.2398 22.488 34.1198 22.12 32.6158 22.12H27.5278V30.472Z" fill="black"/>
<path d="M53.0989 54.42C53.7389 53.8867 54.2489 53.4433 54.6289 53.09C55.0089 52.73 55.3256 52.3567 55.5789 51.97C55.8322 51.5833 55.9589 51.2033 55.9589 50.83C55.9589 50.49 55.8789 50.2233 55.7189 50.03C55.5589 49.8367 55.3122 49.74 54.9789 49.74C54.6456 49.74 54.3889 49.8533 54.2089 50.08C54.0289 50.3 53.9356 50.6033 53.9289 50.99H52.5689C52.5956 50.19 52.8322 49.5833 53.2789 49.17C53.7322 48.7567 54.3056 48.55 54.9989 48.55C55.7589 48.55 56.3422 48.7533 56.7489 49.16C57.1556 49.56 57.3589 50.09 57.3589 50.75C57.3589 51.27 57.2189 51.7667 56.9389 52.24C56.6589 52.7133 56.3389 53.1267 55.9789 53.48C55.6189 53.8267 55.1489 54.2467 54.5689 54.74H57.5189V55.9H52.5789V54.86L53.0989 54.42Z" fill="black"/>
</svg>
