<svg width="64" height="64" viewBox="0 0 64 64" fill="none" xmlns="http://www.w3.org/2000/svg">
<rect width="64" height="64" rx="10" fill="#FDD99D"/>
<path d="M36.5038 49L29.4958 36.28H27.5278V49H19.3198V15.304H33.0958C35.7518 15.304 38.0078 15.768 39.8638 16.696C41.7518 17.624 43.1598 18.904 44.0878 20.536C45.0158 22.136 45.4798 23.928 45.4798 25.912C45.4798 28.152 44.8398 30.152 43.5598 31.912C42.3118 33.672 40.4558 34.92 37.9918 35.656L45.7678 49H36.5038ZM27.5278 30.472H32.6158C34.1198 30.472 35.2398 30.104 35.9758 29.368C36.7438 28.632 37.1278 27.592 37.1278 26.248C37.1278 24.968 36.7438 23.96 35.9758 23.224C35.2398 22.488 34.1198 22.12 32.6158 22.12H27.5278V30.472Z" fill="black"/>
<path d="M51.4322 49.42C52.0722 48.8867 52.5822 48.4433 52.9622 48.09C53.3422 47.73 53.6589 47.3567 53.9122 46.97C54.1656 46.5833 54.2922 46.2033 54.2922 45.83C54.2922 45.49 54.2122 45.2233 54.0522 45.03C53.8922 44.8367 53.6456 44.74 53.3122 44.74C52.9789 44.74 52.7222 44.8533 52.5422 45.08C52.3622 45.3 52.2689 45.6033 52.2622 45.99H50.9022C50.9289 45.19 51.1656 44.5833 51.6122 44.17C52.0656 43.7567 52.6389 43.55 53.3322 43.55C54.0922 43.55 54.6756 43.7533 55.0822 44.16C55.4889 44.56 55.6922 45.09 55.6922 45.75C55.6922 46.27 55.5522 46.7667 55.2722 47.24C54.9922 47.7133 54.6722 48.1267 54.3122 48.48C53.9522 48.8267 53.4822 49.2467 52.9022 49.74H55.8522V50.9H50.9122V49.86L51.4322 49.42Z" fill="black"/>
</svg>
