<svg width="64" height="64" viewBox="0 0 64 64" fill="none" xmlns="http://www.w3.org/2000/svg">
<rect width="64" height="64" rx="10" fill="#FDD99D"/>
<path d="M32.4024 49.336C29.9384 49.336 27.7304 48.936 25.7784 48.136C23.8264 47.336 22.2584 46.152 21.0744 44.584C19.9224 43.016 19.3144 41.128 19.2504 38.92H27.9864C28.1144 40.168 28.5464 41.128 29.2824 41.8C30.0184 42.44 30.9784 42.76 32.1624 42.76C33.3784 42.76 34.3384 42.488 35.0424 41.944C35.7464 41.368 36.0984 40.584 36.0984 39.592C36.0984 38.76 35.8104 38.072 35.2344 37.528C34.6904 36.984 34.0024 36.536 33.1704 36.184C32.3704 35.832 31.2184 35.432 29.7144 34.984C27.5384 34.312 25.7624 33.64 24.3864 32.968C23.0104 32.296 21.8264 31.304 20.8344 29.992C19.8424 28.68 19.3464 26.968 19.3464 24.856C19.3464 21.72 20.4824 19.272 22.7544 17.512C25.0264 15.72 27.9864 14.824 31.6344 14.824C35.3464 14.824 38.3384 15.72 40.6104 17.512C42.8824 19.272 44.0984 21.736 44.2584 24.904H35.3784C35.3144 23.816 34.9144 22.968 34.1784 22.36C33.4424 21.72 32.4984 21.4 31.3464 21.4C30.3544 21.4 29.5544 21.672 28.9464 22.216C28.3384 22.728 28.0344 23.48 28.0344 24.472C28.0344 25.56 28.5464 26.408 29.5704 27.016C30.5944 27.624 32.1944 28.28 34.3704 28.984C36.5464 29.72 38.3064 30.424 39.6504 31.096C41.0264 31.768 42.2104 32.744 43.2024 34.024C44.1944 35.304 44.6904 36.952 44.6904 38.968C44.6904 40.888 44.1944 42.632 43.2024 44.2C42.2424 45.768 40.8344 47.016 38.9784 47.944C37.1224 48.872 34.9304 49.336 32.4024 49.336Z" fill="black"/>
<path d="M53.0989 54.42C53.7389 53.8867 54.2489 53.4433 54.6289 53.09C55.0089 52.73 55.3256 52.3567 55.5789 51.97C55.8322 51.5833 55.9589 51.2033 55.9589 50.83C55.9589 50.49 55.8789 50.2233 55.7189 50.03C55.5589 49.8367 55.3122 49.74 54.9789 49.74C54.6456 49.74 54.3889 49.8533 54.2089 50.08C54.0289 50.3 53.9356 50.6033 53.9289 50.99H52.5689C52.5956 50.19 52.8322 49.5833 53.2789 49.17C53.7322 48.7567 54.3056 48.55 54.9989 48.55C55.7589 48.55 56.3422 48.7533 56.7489 49.16C57.1556 49.56 57.3589 50.09 57.3589 50.75C57.3589 51.27 57.2189 51.7667 56.9389 52.24C56.6589 52.7133 56.3389 53.1267 55.9789 53.48C55.6189 53.8267 55.1489 54.2467 54.5689 54.74H57.5189V55.9H52.5789V54.86L53.0989 54.42Z" fill="black"/>
</svg>
