<svg width="64" height="64" viewBox="0 0 64 64" fill="none" xmlns="http://www.w3.org/2000/svg">
<rect x="0.5" y="0.5" width="63" height="63" rx="9.5" fill="#F5FF39"/>
<rect x="0.5" y="0.5" width="63" height="63" rx="9.5" stroke="white"/>
<path d="M24.6272 43.6457L30.5229 40.0614L36.4186 43.6928L34.8745 36.9016L40.0683 32.3741L33.2368 31.761L30.5229 25.3471L27.809 31.7139L20.9775 32.327L26.1713 36.9016L24.6272 43.6457ZM30.5229 44.4946L22.7556 49.2107C22.4124 49.4308 22.0537 49.5251 21.6794 49.4937C21.3051 49.4622 20.9775 49.3365 20.6968 49.1164C20.416 48.8963 20.1977 48.6215 20.0417 48.292C19.8857 47.9625 19.8545 47.5928 19.9481 47.1828L22.0069 38.2693L15.1286 32.2798C14.8167 31.9968 14.622 31.6743 14.5447 31.3121C14.4673 30.9499 14.4904 30.5965 14.6139 30.2519C14.7375 29.9073 14.9246 29.6243 15.1754 29.403C15.4262 29.1816 15.7694 29.0401 16.2048 28.9785L25.2823 28.1768L28.7916 19.7821C28.9476 19.4048 29.1897 19.1218 29.5178 18.9332C29.846 18.7445 30.181 18.6502 30.5229 18.6502C30.8648 18.6502 31.1998 18.7445 31.528 18.9332C31.8561 19.1218 32.0982 19.4048 32.2542 19.7821L35.7635 28.1768L44.8409 28.9785C45.2777 29.0414 45.6208 29.1829 45.8704 29.403C46.1199 29.6231 46.3071 29.906 46.4318 30.2519C46.5566 30.5977 46.5803 30.9518 46.503 31.3139C46.4256 31.6761 46.2303 31.9981 45.9171 32.2798L39.0389 38.2693L41.0977 47.1828C41.1912 47.5915 41.1601 47.9613 41.0041 48.292C40.8481 48.6228 40.6298 48.8976 40.349 49.1164C40.0683 49.3352 39.7407 49.461 39.3664 49.4937C38.9921 49.5264 38.6333 49.4321 38.2902 49.2107L30.5229 44.4946ZM44.0923 22.8947L41.2848 24.5454C41.0977 24.6397 40.918 24.6315 40.7458 24.5208C40.5736 24.4102 40.5193 24.2454 40.583 24.0266L41.3316 20.9139L38.8517 18.8388C38.6957 18.6816 38.6489 18.5169 38.7113 18.3446C38.7737 18.1723 38.9141 18.0698 39.1324 18.0371L42.4078 17.7541L43.6712 14.783C43.7336 14.5943 43.8739 14.5 44.0923 14.5C44.3107 14.5 44.451 14.5943 44.5134 14.783L45.7768 17.7541L49.0521 18.0371C49.2705 18.0685 49.4109 18.171 49.4733 18.3446C49.5357 18.5181 49.4889 18.6829 49.3329 18.8388L46.853 20.9139L47.6016 24.0266C47.664 24.2467 47.6097 24.412 47.4388 24.5227C47.2678 24.6334 47.0882 24.6409 46.8998 24.5454L44.0923 22.8947Z" fill="#80816D"/>
</svg>
