<svg width="64" height="64" viewBox="0 0 64 64" fill="none" xmlns="http://www.w3.org/2000/svg">
<rect width="64" height="64" rx="10" fill="#FDD99D"/>
<path d="M49.0768 15.304L37.1248 49H26.8528L14.9008 15.304H23.6368L31.9888 40.744L40.3888 15.304H49.0768Z" fill="black"/>
<path d="M55.5455 44.92H52.3055V46.63C52.4455 46.4567 52.6455 46.3167 52.9055 46.21C53.1655 46.0967 53.4422 46.04 53.7355 46.04C54.2689 46.04 54.7055 46.1567 55.0455 46.39C55.3855 46.6233 55.6322 46.9233 55.7855 47.29C55.9389 47.65 56.0155 48.0367 56.0155 48.45C56.0155 49.2167 55.7955 49.8333 55.3555 50.3C54.9222 50.7667 54.3022 51 53.4955 51C52.7355 51 52.1289 50.81 51.6755 50.43C51.2222 50.05 50.9655 49.5533 50.9055 48.94H52.2655C52.3255 49.2067 52.4589 49.42 52.6655 49.58C52.8789 49.74 53.1489 49.82 53.4755 49.82C53.8689 49.82 54.1655 49.6967 54.3655 49.45C54.5655 49.2033 54.6655 48.8767 54.6655 48.47C54.6655 48.0567 54.5622 47.7433 54.3555 47.53C54.1555 47.31 53.8589 47.2 53.4655 47.2C53.1855 47.2 52.9522 47.27 52.7655 47.41C52.5789 47.55 52.4455 47.7367 52.3655 47.97H51.0255V43.69H55.5455V44.92Z" fill="black"/>
</svg>
