<svg width="64" height="64" viewBox="0 0 64 64" fill="none" xmlns="http://www.w3.org/2000/svg">
<rect x="0.5" y="0.5" width="63" height="63" rx="9.5" fill="#FF5355"/>
<rect x="0.5" y="0.5" width="63" height="63" rx="9.5" stroke="white"/>
<path d="M10.2268 27.328C10.3015 25.3307 10.9548 23.7907 12.1868 22.708C13.4188 21.6253 15.0895 21.084 17.1988 21.084C18.5988 21.084 19.7935 21.3267 20.7828 21.812C21.7908 22.2973 22.5468 22.96 23.0508 23.8C23.5735 24.64 23.8348 25.5827 23.8348 26.628C23.8348 27.86 23.5268 28.868 22.9108 29.652C22.2948 30.4173 21.5762 30.94 20.7548 31.22V31.332C21.8188 31.6867 22.6588 32.2747 23.2748 33.096C23.8908 33.9173 24.1988 34.972 24.1988 36.26C24.1988 37.4173 23.9282 38.444 23.3868 39.34C22.8642 40.2173 22.0895 40.908 21.0628 41.412C20.0548 41.916 18.8508 42.168 17.4508 42.168C15.2108 42.168 13.4188 41.6173 12.0748 40.516C10.7495 39.4147 10.0495 37.7533 9.97483 35.532H14.6228C14.6415 36.3533 14.8748 37.0067 15.3228 37.492C15.7708 37.9587 16.4242 38.192 17.2828 38.192C18.0108 38.192 18.5708 37.9867 18.9628 37.576C19.3735 37.1467 19.5788 36.5867 19.5788 35.896C19.5788 35 19.2895 34.356 18.7108 33.964C18.1508 33.5533 17.2455 33.348 15.9948 33.348H15.0988V29.456H15.9948C16.9468 29.456 17.7122 29.2973 18.2908 28.98C18.8882 28.644 19.1868 28.056 19.1868 27.216C19.1868 26.544 19.0002 26.0213 18.6268 25.648C18.2535 25.2747 17.7402 25.088 17.0868 25.088C16.3775 25.088 15.8455 25.3027 15.4908 25.732C15.1548 26.1613 14.9588 26.6933 14.9028 27.328H10.2268ZM54.536 22.344L49.412 42H43.616L40.48 29.064L37.232 42H31.436L26.452 22.344H31.576L34.404 36.652L37.904 22.344H43.168L46.528 36.652L49.384 22.344H54.536Z" fill="#A53D3F"/>
</svg>
