<svg width="64" height="64" viewBox="0 0 64 64" fill="none" xmlns="http://www.w3.org/2000/svg">
<rect width="64" height="64" rx="10" fill="#FDD99D"/>
<path d="M37.7776 49L26.4496 34.12V49H18.2416V15.304H26.4496V30.088L37.6816 15.304H47.3296L34.2736 31.816L47.8096 49H37.7776Z" fill="black"/>
<path d="M51.4322 49.42C52.0722 48.8867 52.5822 48.4433 52.9622 48.09C53.3422 47.73 53.6589 47.3567 53.9122 46.97C54.1656 46.5833 54.2922 46.2033 54.2922 45.83C54.2922 45.49 54.2122 45.2233 54.0522 45.03C53.8922 44.8367 53.6456 44.74 53.3122 44.74C52.9789 44.74 52.7222 44.8533 52.5422 45.08C52.3622 45.3 52.2689 45.6033 52.2622 45.99H50.9022C50.9289 45.19 51.1656 44.5833 51.6122 44.17C52.0656 43.7567 52.6389 43.55 53.3322 43.55C54.0922 43.55 54.6756 43.7533 55.0822 44.16C55.4889 44.56 55.6922 45.09 55.6922 45.75C55.6922 46.27 55.5522 46.7667 55.2722 47.24C54.9922 47.7133 54.6722 48.1267 54.3122 48.48C53.9522 48.8267 53.4822 49.2467 52.9022 49.74H55.8522V50.9H50.9122V49.86L51.4322 49.42Z" fill="black"/>
</svg>
