<svg width="64" height="64" viewBox="0 0 64 64" fill="none" xmlns="http://www.w3.org/2000/svg">
<rect width="64" height="64" rx="10" fill="#FDD99D"/>
<path d="M39.0627 25.96C38.4548 24.84 37.5748 23.992 36.4228 23.416C35.3028 22.808 33.9748 22.504 32.4388 22.504C29.7828 22.504 27.6548 23.384 26.0547 25.144C24.4548 26.872 23.6548 29.192 23.6548 32.104C23.6548 35.208 24.4868 37.64 26.1508 39.4C27.8468 41.128 30.1668 41.992 33.1108 41.992C35.1268 41.992 36.8228 41.48 38.1988 40.456C39.6068 39.432 40.6308 37.96 41.2708 36.04H30.8548V29.992H48.7108V37.624C48.1028 39.672 47.0628 41.576 45.5908 43.336C44.1508 45.096 42.3108 46.52 40.0708 47.608C37.8308 48.696 35.3028 49.24 32.4868 49.24C29.1588 49.24 26.1828 48.52 23.5588 47.08C20.9668 45.608 18.9348 43.576 17.4628 40.984C16.0228 38.392 15.3027 35.432 15.3027 32.104C15.3027 28.776 16.0228 25.816 17.4628 23.224C18.9348 20.6 20.9668 18.568 23.5588 17.128C26.1508 15.656 29.1108 14.92 32.4388 14.92C36.4708 14.92 39.8628 15.896 42.6148 17.848C45.3988 19.8 47.2388 22.504 48.1348 25.96H39.0627Z" fill="black"/>
<path d="M51.4322 49.42C52.0722 48.8867 52.5822 48.4433 52.9622 48.09C53.3422 47.73 53.6589 47.3567 53.9122 46.97C54.1656 46.5833 54.2922 46.2033 54.2922 45.83C54.2922 45.49 54.2122 45.2233 54.0522 45.03C53.8922 44.8367 53.6456 44.74 53.3122 44.74C52.9789 44.74 52.7222 44.8533 52.5422 45.08C52.3622 45.3 52.2689 45.6033 52.2622 45.99H50.9022C50.9289 45.19 51.1656 44.5833 51.6122 44.17C52.0656 43.7567 52.6389 43.55 53.3322 43.55C54.0922 43.55 54.6756 43.7533 55.0822 44.16C55.4889 44.56 55.6922 45.09 55.6922 45.75C55.6922 46.27 55.5522 46.7667 55.2722 47.24C54.9922 47.7133 54.6722 48.1267 54.3122 48.48C53.9522 48.8267 53.4822 49.2467 52.9022 49.74H55.8522V50.9H50.9122V49.86L51.4322 49.42Z" fill="black"/>
</svg>
