<svg width="64" height="64" viewBox="0 0 64 64" fill="none" xmlns="http://www.w3.org/2000/svg">
<rect width="64" height="64" rx="10" fill="#FDD99D"/>
<path d="M15.3027 32.104C15.3027 28.776 16.0228 25.816 17.4628 23.224C18.9028 20.6 20.9028 18.568 23.4628 17.128C26.0548 15.656 28.9828 14.92 32.2468 14.92C36.2468 14.92 39.6708 15.976 42.5188 18.088C45.3668 20.2 47.2708 23.08 48.2308 26.728H39.2068C38.5348 25.32 37.5748 24.248 36.3268 23.512C35.1108 22.776 33.7188 22.408 32.1508 22.408C29.6228 22.408 27.5748 23.288 26.0068 25.048C24.4388 26.808 23.6548 29.16 23.6548 32.104C23.6548 35.048 24.4388 37.4 26.0068 39.16C27.5748 40.92 29.6228 41.8 32.1508 41.8C33.7188 41.8 35.1108 41.432 36.3268 40.696C37.5748 39.96 38.5348 38.888 39.2068 37.48H48.2308C47.2708 41.128 45.3668 44.008 42.5188 46.12C39.6708 48.2 36.2468 49.24 32.2468 49.24C28.9828 49.24 26.0548 48.52 23.4628 47.08C20.9028 45.608 18.9028 43.576 17.4628 40.984C16.0228 38.392 15.3027 35.432 15.3027 32.104Z" fill="black"/>
<path d="M50.4976 49.58V48.48L53.7676 43.8H55.3976V48.36H56.2776V49.58H55.3976V51H53.9976V49.58H50.4976ZM54.0876 45.3L52.0376 48.36H54.0876V45.3Z" fill="black"/>
</svg>
