<svg width="64" height="64" viewBox="0 0 64 64" fill="none" xmlns="http://www.w3.org/2000/svg">
<rect width="64" height="64" rx="10" fill="#FDD99D"/>
<path d="M32.4024 49.336C29.9384 49.336 27.7304 48.936 25.7784 48.136C23.8264 47.336 22.2584 46.152 21.0744 44.584C19.9224 43.016 19.3144 41.128 19.2504 38.92H27.9864C28.1144 40.168 28.5464 41.128 29.2824 41.8C30.0184 42.44 30.9784 42.76 32.1624 42.76C33.3784 42.76 34.3384 42.488 35.0424 41.944C35.7464 41.368 36.0984 40.584 36.0984 39.592C36.0984 38.76 35.8104 38.072 35.2344 37.528C34.6904 36.984 34.0024 36.536 33.1704 36.184C32.3704 35.832 31.2184 35.432 29.7144 34.984C27.5384 34.312 25.7624 33.64 24.3864 32.968C23.0104 32.296 21.8264 31.304 20.8344 29.992C19.8424 28.68 19.3464 26.968 19.3464 24.856C19.3464 21.72 20.4824 19.272 22.7544 17.512C25.0264 15.72 27.9864 14.824 31.6344 14.824C35.3464 14.824 38.3384 15.72 40.6104 17.512C42.8824 19.272 44.0984 21.736 44.2584 24.904H35.3784C35.3144 23.816 34.9144 22.968 34.1784 22.36C33.4424 21.72 32.4984 21.4 31.3464 21.4C30.3544 21.4 29.5544 21.672 28.9464 22.216C28.3384 22.728 28.0344 23.48 28.0344 24.472C28.0344 25.56 28.5464 26.408 29.5704 27.016C30.5944 27.624 32.1944 28.28 34.3704 28.984C36.5464 29.72 38.3064 30.424 39.6504 31.096C41.0264 31.768 42.2104 32.744 43.2024 34.024C44.1944 35.304 44.6904 36.952 44.6904 38.968C44.6904 40.888 44.1944 42.632 43.2024 44.2C42.2424 45.768 40.8344 47.016 38.9784 47.944C37.1224 48.872 34.9304 49.336 32.4024 49.336Z" fill="black"/>
<path d="M51.4322 49.42C52.0722 48.8867 52.5822 48.4433 52.9622 48.09C53.3422 47.73 53.6589 47.3567 53.9122 46.97C54.1656 46.5833 54.2922 46.2033 54.2922 45.83C54.2922 45.49 54.2122 45.2233 54.0522 45.03C53.8922 44.8367 53.6456 44.74 53.3122 44.74C52.9789 44.74 52.7222 44.8533 52.5422 45.08C52.3622 45.3 52.2689 45.6033 52.2622 45.99H50.9022C50.9289 45.19 51.1656 44.5833 51.6122 44.17C52.0656 43.7567 52.6389 43.55 53.3322 43.55C54.0922 43.55 54.6756 43.7533 55.0822 44.16C55.4889 44.56 55.6922 45.09 55.6922 45.75C55.6922 46.27 55.5522 46.7667 55.2722 47.24C54.9922 47.7133 54.6722 48.1267 54.3122 48.48C53.9522 48.8267 53.4822 49.2467 52.9022 49.74H55.8522V50.9H50.9122V49.86L51.4322 49.42Z" fill="black"/>
</svg>
