<svg width="64" height="64" viewBox="0 0 64 64" fill="none" xmlns="http://www.w3.org/2000/svg">
<rect x="0.5" y="0.5" width="63" height="63" rx="9.5" fill="#FF98F6"/>
<rect x="0.5" y="0.5" width="63" height="63" rx="9.5" stroke="white"/>
<path d="M16.3195 26.232C16.4048 23.9493 17.1515 22.1893 18.5595 20.952C19.9675 19.7147 21.8768 19.096 24.2875 19.096C25.8875 19.096 27.2528 19.3733 28.3835 19.928C29.5355 20.4827 30.3995 21.24 30.9755 22.2C31.5728 23.16 31.8715 24.2373 31.8715 25.432C31.8715 26.84 31.5195 27.992 30.8155 28.888C30.1115 29.7627 29.2902 30.36 28.3515 30.68V30.808C29.5675 31.2133 30.5275 31.8853 31.2315 32.824C31.9355 33.7627 32.2875 34.968 32.2875 36.44C32.2875 37.7627 31.9782 38.936 31.3595 39.96C30.7622 40.9627 29.8768 41.752 28.7035 42.328C27.5515 42.904 26.1755 43.192 24.5755 43.192C22.0155 43.192 19.9675 42.5627 18.4315 41.304C16.9168 40.0453 16.1168 38.1467 16.0315 35.608H21.3435C21.3648 36.5467 21.6315 37.2933 22.1435 37.848C22.6555 38.3813 23.4022 38.648 24.3835 38.648C25.2155 38.648 25.8555 38.4133 26.3035 37.944C26.7728 37.4533 27.0075 36.8133 27.0075 36.024C27.0075 35 26.6768 34.264 26.0155 33.816C25.3755 33.3467 24.3408 33.112 22.9115 33.112H21.8875V28.664H22.9115C23.9995 28.664 24.8742 28.4827 25.5355 28.12C26.2182 27.736 26.5595 27.064 26.5595 26.104C26.5595 25.336 26.3462 24.7387 25.9195 24.312C25.4928 23.8853 24.9062 23.672 24.1595 23.672C23.3488 23.672 22.7408 23.9173 22.3355 24.408C21.9515 24.8987 21.7275 25.5067 21.6635 26.232H16.3195ZM41.5185 38.776H48.6865V43H36.0465V20.536H41.5185V38.776Z" fill="#A567A0"/>
</svg>
