<svg width="64" height="64" viewBox="0 0 64 64" fill="none" xmlns="http://www.w3.org/2000/svg">
<rect width="64" height="64" rx="10" fill="#FDD99D"/>
<path d="M29.4151 42.28H43.9111V49H20.1031V42.76L34.5031 22.024H20.1031V15.304H43.9111V21.544L29.4151 42.28Z" fill="black"/>
<path d="M51.8704 47.14C51.2038 46.7933 50.8704 46.2567 50.8704 45.53C50.8704 45.17 50.9604 44.8433 51.1404 44.55C51.3271 44.25 51.6038 44.0133 51.9704 43.84C52.3438 43.66 52.7971 43.57 53.3304 43.57C53.8638 43.57 54.3138 43.66 54.6804 43.84C55.0538 44.0133 55.3304 44.25 55.5104 44.55C55.6971 44.8433 55.7904 45.17 55.7904 45.53C55.7904 45.8967 55.7004 46.22 55.5204 46.5C55.3404 46.7733 55.1004 46.9867 54.8004 47.14C55.1671 47.3 55.4538 47.5333 55.6604 47.84C55.8671 48.1467 55.9704 48.51 55.9704 48.93C55.9704 49.3833 55.8538 49.78 55.6204 50.12C55.3938 50.4533 55.0804 50.71 54.6804 50.89C54.2804 51.07 53.8304 51.16 53.3304 51.16C52.8304 51.16 52.3804 51.07 51.9804 50.89C51.5871 50.71 51.2738 50.4533 51.0404 50.12C50.8138 49.78 50.7004 49.3833 50.7004 48.93C50.7004 48.51 50.8038 48.1467 51.0104 47.84C51.2171 47.5267 51.5038 47.2933 51.8704 47.14ZM54.4304 45.73C54.4304 45.4033 54.3304 45.15 54.1304 44.97C53.9371 44.79 53.6704 44.7 53.3304 44.7C52.9971 44.7 52.7304 44.79 52.5304 44.97C52.3371 45.15 52.2404 45.4067 52.2404 45.74C52.2404 46.04 52.3404 46.28 52.5404 46.46C52.7471 46.64 53.0104 46.73 53.3304 46.73C53.6504 46.73 53.9138 46.64 54.1204 46.46C54.3271 46.2733 54.4304 46.03 54.4304 45.73ZM53.3304 47.75C52.9504 47.75 52.6404 47.8467 52.4004 48.04C52.1671 48.2333 52.0504 48.51 52.0504 48.87C52.0504 49.2033 52.1638 49.4767 52.3904 49.69C52.6238 49.8967 52.9371 50 53.3304 50C53.7238 50 54.0338 49.8933 54.2604 49.68C54.4871 49.4667 54.6004 49.1967 54.6004 48.87C54.6004 48.5167 54.4838 48.2433 54.2504 48.05C54.0171 47.85 53.7104 47.75 53.3304 47.75Z" fill="black"/>
</svg>
