<svg width="64" height="64" viewBox="0 0 64 64" fill="none" xmlns="http://www.w3.org/2000/svg">
<rect x="0.5" y="0.5" width="63" height="63" rx="9.5" fill="#57D5FF"/>
<rect x="0.5" y="0.5" width="63" height="63" rx="9.5" stroke="white"/>
<path d="M16.4824 38.616C17.2077 38.04 17.5384 37.7733 17.4744 37.816C19.565 36.088 21.2077 34.6693 22.4024 33.56C23.6184 32.4507 24.6424 31.288 25.4744 30.072C26.3064 28.856 26.7224 27.672 26.7224 26.52C26.7224 25.6453 26.5197 24.9627 26.1144 24.472C25.709 23.9813 25.101 23.736 24.2904 23.736C23.4797 23.736 22.8397 24.0453 22.3704 24.664C21.9224 25.2613 21.6984 26.1147 21.6984 27.224H16.4184C16.461 25.4107 16.845 23.896 17.5704 22.68C18.317 21.464 19.2877 20.568 20.4824 19.992C21.6984 19.416 23.0424 19.128 24.5144 19.128C27.053 19.128 28.9624 19.7787 30.2424 21.08C31.5437 22.3813 32.1944 24.0773 32.1944 26.168C32.1944 28.4507 31.4157 30.5733 29.8584 32.536C28.301 34.4773 26.317 36.376 23.9064 38.232H32.5464V42.68H16.4824V38.616ZM40.9716 38.776H48.1396V43H35.4996V20.536H40.9716V38.776Z" fill="#4591AC"/>
</svg>
