<svg width="64" height="64" viewBox="0 0 64 64" fill="none" xmlns="http://www.w3.org/2000/svg">
<rect width="64" height="64" rx="10" fill="#FDD99D"/>
<path d="M39.5557 31.72C41.5077 32.136 43.0757 33.112 44.2597 34.648C45.4437 36.152 46.0357 37.88 46.0357 39.832C46.0357 42.648 45.0437 44.888 43.0597 46.552C41.1077 48.184 38.3717 49 34.8517 49H19.1557V15.304H34.3237C37.7477 15.304 40.4197 16.088 42.3397 17.656C44.2917 19.224 45.2677 21.352 45.2677 24.04C45.2677 26.024 44.7397 27.672 43.6837 28.984C42.6597 30.296 41.2837 31.208 39.5557 31.72ZM27.3637 28.936H32.7397C34.0837 28.936 35.1077 28.648 35.8117 28.072C36.5477 27.464 36.9157 26.584 36.9157 25.432C36.9157 24.28 36.5477 23.4 35.8117 22.792C35.1077 22.184 34.0837 21.88 32.7397 21.88H27.3637V28.936ZM33.4117 42.376C34.7877 42.376 35.8437 42.072 36.5797 41.464C37.3477 40.824 37.7317 39.912 37.7317 38.728C37.7317 37.544 37.3317 36.616 36.5317 35.944C35.7637 35.272 34.6917 34.936 33.3157 34.936H27.3637V42.376H33.4117Z" fill="black"/>
<path d="M50.8901 45.63C50.9235 44.9633 51.1568 44.45 51.5901 44.09C52.0301 43.7233 52.6068 43.54 53.3201 43.54C53.8068 43.54 54.2235 43.6267 54.5701 43.8C54.9168 43.9667 55.1768 44.1967 55.3501 44.49C55.5301 44.7767 55.6201 45.1033 55.6201 45.47C55.6201 45.89 55.5101 46.2467 55.2901 46.54C55.0768 46.8267 54.8201 47.02 54.5201 47.12V47.16C54.9068 47.28 55.2068 47.4933 55.4201 47.8C55.6401 48.1067 55.7501 48.5 55.7501 48.98C55.7501 49.38 55.6568 49.7367 55.4701 50.05C55.2901 50.3633 55.0201 50.61 54.6601 50.79C54.3068 50.9633 53.8801 51.05 53.3801 51.05C52.6268 51.05 52.0135 50.86 51.5401 50.48C51.0668 50.1 50.8168 49.54 50.7901 48.8H52.1501C52.1635 49.1267 52.2735 49.39 52.4801 49.59C52.6935 49.7833 52.9835 49.88 53.3501 49.88C53.6901 49.88 53.9501 49.7867 54.1301 49.6C54.3168 49.4067 54.4101 49.16 54.4101 48.86C54.4101 48.46 54.2835 48.1733 54.0301 48C53.7768 47.8267 53.3835 47.74 52.8501 47.74H52.5601V46.59H52.8501C53.7968 46.59 54.2701 46.2733 54.2701 45.64C54.2701 45.3533 54.1835 45.13 54.0101 44.97C53.8435 44.81 53.6001 44.73 53.2801 44.73C52.9668 44.73 52.7235 44.8167 52.5501 44.99C52.3835 45.1567 52.2868 45.37 52.2601 45.63H50.8901Z" fill="black"/>
</svg>
