<svg width="64" height="64" viewBox="0 0 64 64" fill="none" xmlns="http://www.w3.org/2000/svg">
<rect width="64" height="64" rx="10" fill="#FDD99D"/>
<path d="M32.0448 49.336C28.8768 49.336 25.9648 48.6 23.3088 47.128C20.6848 45.656 18.5888 43.608 17.0208 40.984C15.4848 38.328 14.7168 35.352 14.7168 32.056C14.7168 28.76 15.4848 25.8 17.0208 23.176C18.5888 20.552 20.6848 18.504 23.3088 17.032C25.9648 15.56 28.8768 14.824 32.0448 14.824C35.2128 14.824 38.1088 15.56 40.7328 17.032C43.3888 18.504 45.4688 20.552 46.9728 23.176C48.5088 25.8 49.2768 28.76 49.2768 32.056C49.2768 35.352 48.5088 38.328 46.9728 40.984C45.4368 43.608 43.3568 45.656 40.7328 47.128C38.1088 48.6 35.2128 49.336 32.0448 49.336ZM32.0448 41.848C34.7328 41.848 36.8768 40.952 38.4768 39.16C40.1088 37.368 40.9248 35 40.9248 32.056C40.9248 29.08 40.1088 26.712 38.4768 24.952C36.8768 23.16 34.7328 22.264 32.0448 22.264C29.3248 22.264 27.1488 23.144 25.5168 24.904C23.9168 26.664 23.1168 29.048 23.1168 32.056C23.1168 35.032 23.9168 37.416 25.5168 39.208C27.1488 40.968 29.3248 41.848 32.0448 41.848Z" fill="black"/>
<path d="M51.8818 45V43.71H54.2918V51H52.8518V45H51.8818Z" fill="black"/>
</svg>
