<svg width="64" height="64" viewBox="0 0 64 64" fill="none" xmlns="http://www.w3.org/2000/svg">
<rect width="64" height="64" rx="10" fill="#FDD99D"/>
<path d="M40.0619 54.76L35.7419 48.952C34.4619 49.208 33.2139 49.336 31.9979 49.336C28.8299 49.336 25.9179 48.6 23.2619 47.128C20.6379 45.656 18.5419 43.608 16.9739 40.984C15.4379 38.328 14.6699 35.352 14.6699 32.056C14.6699 28.76 15.4379 25.8 16.9739 23.176C18.5419 20.552 20.6379 18.504 23.2619 17.032C25.9179 15.56 28.8299 14.824 31.9979 14.824C35.1659 14.824 38.0619 15.56 40.6859 17.032C43.3419 18.504 45.4219 20.552 46.9259 23.176C48.4619 25.8 49.2299 28.76 49.2299 32.056C49.2299 34.936 48.6379 37.576 47.4539 39.976C46.3019 42.344 44.6859 44.312 42.6059 45.88L49.9979 54.76H40.0619ZM23.0699 32.056C23.0699 35.032 23.8699 37.416 25.4699 39.208C27.1019 40.968 29.2779 41.848 31.9979 41.848C34.6859 41.848 36.8299 40.952 38.4299 39.16C40.0619 37.368 40.8779 35 40.8779 32.056C40.8779 29.08 40.0619 26.712 38.4299 24.952C36.8299 23.16 34.6859 22.264 31.9979 22.264C29.2779 22.264 27.1019 23.144 25.4699 24.904C23.8699 26.664 23.0699 29.048 23.0699 32.056Z" fill="black"/>
<path d="M51.8704 47.14C51.2038 46.7933 50.8704 46.2567 50.8704 45.53C50.8704 45.17 50.9604 44.8433 51.1404 44.55C51.3271 44.25 51.6038 44.0133 51.9704 43.84C52.3438 43.66 52.7971 43.57 53.3304 43.57C53.8638 43.57 54.3138 43.66 54.6804 43.84C55.0538 44.0133 55.3304 44.25 55.5104 44.55C55.6971 44.8433 55.7904 45.17 55.7904 45.53C55.7904 45.8967 55.7004 46.22 55.5204 46.5C55.3404 46.7733 55.1004 46.9867 54.8004 47.14C55.1671 47.3 55.4538 47.5333 55.6604 47.84C55.8671 48.1467 55.9704 48.51 55.9704 48.93C55.9704 49.3833 55.8538 49.78 55.6204 50.12C55.3938 50.4533 55.0804 50.71 54.6804 50.89C54.2804 51.07 53.8304 51.16 53.3304 51.16C52.8304 51.16 52.3804 51.07 51.9804 50.89C51.5871 50.71 51.2738 50.4533 51.0404 50.12C50.8138 49.78 50.7004 49.3833 50.7004 48.93C50.7004 48.51 50.8038 48.1467 51.0104 47.84C51.2171 47.5267 51.5038 47.2933 51.8704 47.14ZM54.4304 45.73C54.4304 45.4033 54.3304 45.15 54.1304 44.97C53.9371 44.79 53.6704 44.7 53.3304 44.7C52.9971 44.7 52.7304 44.79 52.5304 44.97C52.3371 45.15 52.2404 45.4067 52.2404 45.74C52.2404 46.04 52.3404 46.28 52.5404 46.46C52.7471 46.64 53.0104 46.73 53.3304 46.73C53.6504 46.73 53.9138 46.64 54.1204 46.46C54.3271 46.2733 54.4304 46.03 54.4304 45.73ZM53.3304 47.75C52.9504 47.75 52.6404 47.8467 52.4004 48.04C52.1671 48.2333 52.0504 48.51 52.0504 48.87C52.0504 49.2033 52.1638 49.4767 52.3904 49.69C52.6238 49.8967 52.9371 50 53.3304 50C53.7238 50 54.0338 49.8933 54.2604 49.68C54.4871 49.4667 54.6004 49.1967 54.6004 48.87C54.6004 48.5167 54.4838 48.2433 54.2504 48.05C54.0171 47.85 53.7104 47.75 53.3304 47.75Z" fill="black"/>
</svg>
