<svg width="64" height="64" viewBox="0 0 64 64" fill="none" xmlns="http://www.w3.org/2000/svg">
<rect width="64" height="64" rx="10" fill="#FDD99D"/>
<path d="M45.6794 26.152C45.6794 28.104 45.2314 29.896 44.3354 31.528C43.4394 33.128 42.0634 34.424 40.2074 35.416C38.3514 36.408 36.0474 36.904 33.2954 36.904H28.2074V49H19.9994V15.304H33.2954C35.9834 15.304 38.2554 15.768 40.1114 16.696C41.9674 17.624 43.3594 18.904 44.2874 20.536C45.2154 22.168 45.6794 24.04 45.6794 26.152ZM32.6714 30.376C34.2394 30.376 35.4074 30.008 36.1754 29.272C36.9434 28.536 37.3274 27.496 37.3274 26.152C37.3274 24.808 36.9434 23.768 36.1754 23.032C35.4074 22.296 34.2394 21.928 32.6714 21.928H28.2074V30.376H32.6714Z" fill="black"/>
<path d="M50.8901 45.63C50.9235 44.9633 51.1568 44.45 51.5901 44.09C52.0301 43.7233 52.6068 43.54 53.3201 43.54C53.8068 43.54 54.2235 43.6267 54.5701 43.8C54.9168 43.9667 55.1768 44.1967 55.3501 44.49C55.5301 44.7767 55.6201 45.1033 55.6201 45.47C55.6201 45.89 55.5101 46.2467 55.2901 46.54C55.0768 46.8267 54.8201 47.02 54.5201 47.12V47.16C54.9068 47.28 55.2068 47.4933 55.4201 47.8C55.6401 48.1067 55.7501 48.5 55.7501 48.98C55.7501 49.38 55.6568 49.7367 55.4701 50.05C55.2901 50.3633 55.0201 50.61 54.6601 50.79C54.3068 50.9633 53.8801 51.05 53.3801 51.05C52.6268 51.05 52.0135 50.86 51.5401 50.48C51.0668 50.1 50.8168 49.54 50.7901 48.8H52.1501C52.1635 49.1267 52.2735 49.39 52.4801 49.59C52.6935 49.7833 52.9835 49.88 53.3501 49.88C53.6901 49.88 53.9501 49.7867 54.1301 49.6C54.3168 49.4067 54.4101 49.16 54.4101 48.86C54.4101 48.46 54.2835 48.1733 54.0301 48C53.7768 47.8267 53.3835 47.74 52.8501 47.74H52.5601V46.59H52.8501C53.7968 46.59 54.2701 46.2733 54.2701 45.64C54.2701 45.3533 54.1835 45.13 54.0101 44.97C53.8435 44.81 53.6001 44.73 53.2801 44.73C52.9668 44.73 52.7235 44.8167 52.5501 44.99C52.3835 45.1567 52.2868 45.37 52.2601 45.63H50.8901Z" fill="black"/>
</svg>
