<svg width="64" height="64" viewBox="0 0 64 64" fill="none" xmlns="http://www.w3.org/2000/svg">
<rect x="0.5" y="0.5" width="63" height="63" rx="9.5" fill="#8BFF8B"/>
<rect x="0.5" y="0.5" width="63" height="63" rx="9.5" stroke="white"/>
<path d="M10.3693 38.164C11.004 37.66 11.2933 37.4267 11.2373 37.464C13.0667 35.952 14.504 34.7107 15.5493 33.74C16.6133 32.7693 17.5093 31.752 18.2373 30.688C18.9653 29.624 19.3293 28.588 19.3293 27.58C19.3293 26.8147 19.152 26.2173 18.7973 25.788C18.4427 25.3587 17.9107 25.144 17.2013 25.144C16.492 25.144 15.932 25.4147 15.5213 25.956C15.1293 26.4787 14.9333 27.2253 14.9333 28.196H10.3133C10.3507 26.6093 10.6867 25.284 11.3213 24.22C11.9747 23.156 12.824 22.372 13.8693 21.868C14.9333 21.364 16.1093 21.112 17.3973 21.112C19.6187 21.112 21.2893 21.6813 22.4093 22.82C23.548 23.9587 24.1173 25.4427 24.1173 27.272C24.1173 29.2693 23.436 31.1267 22.0733 32.844C20.7107 34.5427 18.9747 36.204 16.8653 37.828H24.4253V41.72H10.3693V38.164ZM54.0574 22.344L48.9334 42H43.1374L40.0014 29.064L36.7534 42H30.9574L25.9734 22.344H31.0974L33.9254 36.652L37.4254 22.344H42.6894L46.0494 36.652L48.9054 22.344H54.0574Z" fill="#6AA56A"/>
</svg>
