<svg width="64" height="64" viewBox="0 0 64 64" fill="none" xmlns="http://www.w3.org/2000/svg">
<rect width="64" height="64" rx="10" fill="#FDD99D"/>
<path d="M26.1181 15.304V35.464C26.1181 37.48 26.6141 39.032 27.6061 40.12C28.5981 41.208 30.0541 41.752 31.9741 41.752C33.8941 41.752 35.3661 41.208 36.3901 40.12C37.4141 39.032 37.9261 37.48 37.9261 35.464V15.304H46.1341V35.416C46.1341 38.424 45.4941 40.968 44.2141 43.048C42.9341 45.128 41.2061 46.696 39.0301 47.752C36.8861 48.808 34.4861 49.336 31.8301 49.336C29.1741 49.336 26.7901 48.824 24.6781 47.8C22.5981 46.744 20.9501 45.176 19.7341 43.096C18.5181 40.984 17.9101 38.424 17.9101 35.416V15.304H26.1181Z" fill="black"/>
<path d="M53.0989 54.42C53.7389 53.8867 54.2489 53.4433 54.6289 53.09C55.0089 52.73 55.3256 52.3567 55.5789 51.97C55.8322 51.5833 55.9589 51.2033 55.9589 50.83C55.9589 50.49 55.8789 50.2233 55.7189 50.03C55.5589 49.8367 55.3122 49.74 54.9789 49.74C54.6456 49.74 54.3889 49.8533 54.2089 50.08C54.0289 50.3 53.9356 50.6033 53.9289 50.99H52.5689C52.5956 50.19 52.8322 49.5833 53.2789 49.17C53.7322 48.7567 54.3056 48.55 54.9989 48.55C55.7589 48.55 56.3422 48.7533 56.7489 49.16C57.1556 49.56 57.3589 50.09 57.3589 50.75C57.3589 51.27 57.2189 51.7667 56.9389 52.24C56.6589 52.7133 56.3389 53.1267 55.9789 53.48C55.6189 53.8267 55.1489 54.2467 54.5689 54.74H57.5189V55.9H52.5789V54.86L53.0989 54.42Z" fill="black"/>
</svg>
