<svg width="64" height="64" viewBox="0 0 64 64" fill="none" xmlns="http://www.w3.org/2000/svg">
<rect width="64" height="64" rx="10" fill="#FDD99D"/>
<path d="M26.1181 15.304V35.464C26.1181 37.48 26.6141 39.032 27.6061 40.12C28.5981 41.208 30.0541 41.752 31.9741 41.752C33.8941 41.752 35.3661 41.208 36.3901 40.12C37.4141 39.032 37.9261 37.48 37.9261 35.464V15.304H46.1341V35.416C46.1341 38.424 45.4941 40.968 44.2141 43.048C42.9341 45.128 41.2061 46.696 39.0301 47.752C36.8861 48.808 34.4861 49.336 31.8301 49.336C29.1741 49.336 26.7901 48.824 24.6781 47.8C22.5981 46.744 20.9501 45.176 19.7341 43.096C18.5181 40.984 17.9101 38.424 17.9101 35.416V15.304H26.1181Z" fill="black"/>
<path d="M51.8818 45V43.71H54.2918V51H52.8518V45H51.8818Z" fill="black"/>
</svg>
