<svg width="64" height="64" viewBox="0 0 64 64" fill="none" xmlns="http://www.w3.org/2000/svg">
<rect width="64" height="64" rx="10" fill="#FDD99D"/>
<path d="M38.4598 49L31.5958 38.68L25.5478 49H16.2358L27.0358 31.864L15.9958 15.304H25.5478L32.3158 25.48L38.2678 15.304H47.5798L36.8758 32.296L48.0118 49H38.4598Z" fill="black"/>
<path d="M52.3161 50V48.71H54.7261V56H53.2861V50H52.3161ZM56.1091 52.26C56.1091 51.1067 56.3158 50.2033 56.7291 49.55C57.1491 48.8967 57.8424 48.57 58.8091 48.57C59.7758 48.57 60.4658 48.8967 60.8791 49.55C61.2991 50.2033 61.5091 51.1067 61.5091 52.26C61.5091 53.42 61.2991 54.33 60.8791 54.99C60.4658 55.65 59.7758 55.98 58.8091 55.98C57.8424 55.98 57.1491 55.65 56.7291 54.99C56.3158 54.33 56.1091 53.42 56.1091 52.26ZM60.1291 52.26C60.1291 51.7667 60.0958 51.3533 60.0291 51.02C59.9691 50.68 59.8424 50.4033 59.6491 50.19C59.4624 49.9767 59.1824 49.87 58.8091 49.87C58.4358 49.87 58.1524 49.9767 57.9591 50.19C57.7724 50.4033 57.6458 50.68 57.5791 51.02C57.5191 51.3533 57.4891 51.7667 57.4891 52.26C57.4891 52.7667 57.5191 53.1933 57.5791 53.54C57.6391 53.88 57.7658 54.1567 57.9591 54.37C58.1524 54.5767 58.4358 54.68 58.8091 54.68C59.1824 54.68 59.4658 54.5767 59.6591 54.37C59.8524 54.1567 59.9791 53.88 60.0391 53.54C60.0991 53.1933 60.1291 52.7667 60.1291 52.26Z" fill="black"/>
</svg>
