<svg width="64" height="64" viewBox="0 0 64 64" fill="none" xmlns="http://www.w3.org/2000/svg">
<rect width="64" height="64" rx="10" fill="#FDD99D"/>
<path d="M29.4151 42.28H43.9111V49H20.1031V42.76L34.5031 22.024H20.1031V15.304H43.9111V21.544L29.4151 42.28Z" fill="black"/>
<path d="M51.8161 50V48.71H54.2261V56H52.7861V50H51.8161ZM55.6091 52.26C55.6091 51.1067 55.8158 50.2033 56.2291 49.55C56.6491 48.8967 57.3424 48.57 58.3091 48.57C59.2758 48.57 59.9658 48.8967 60.3791 49.55C60.7991 50.2033 61.0091 51.1067 61.0091 52.26C61.0091 53.42 60.7991 54.33 60.3791 54.99C59.9658 55.65 59.2758 55.98 58.3091 55.98C57.3424 55.98 56.6491 55.65 56.2291 54.99C55.8158 54.33 55.6091 53.42 55.6091 52.26ZM59.6291 52.26C59.6291 51.7667 59.5958 51.3533 59.5291 51.02C59.4691 50.68 59.3424 50.4033 59.1491 50.19C58.9624 49.9767 58.6824 49.87 58.3091 49.87C57.9358 49.87 57.6524 49.9767 57.4591 50.19C57.2724 50.4033 57.1458 50.68 57.0791 51.02C57.0191 51.3533 56.9891 51.7667 56.9891 52.26C56.9891 52.7667 57.0191 53.1933 57.0791 53.54C57.1391 53.88 57.2658 54.1567 57.4591 54.37C57.6524 54.5767 57.9358 54.68 58.3091 54.68C58.6824 54.68 58.9658 54.5767 59.1591 54.37C59.3524 54.1567 59.4791 53.88 59.5391 53.54C59.5991 53.1933 59.6291 52.7667 59.6291 52.26Z" fill="black"/>
</svg>
