<svg width="704" height="192" viewBox="0 0 704 192" fill="none" xmlns="http://www.w3.org/2000/svg">
<g clip-path="url(#clip0_74_675)">
<rect width="64" height="64" rx="10" fill="#FDD99D"/>
<path d="M38.2567 43.048H25.6807L23.6647 49H15.0727L27.2647 15.304H36.7687L48.9607 49H40.2727L38.2567 43.048ZM36.1447 36.712L31.9687 24.376L27.8407 36.712H36.1447Z" fill="black"/>
<path d="M51.8819 45V43.71H54.2919V51H52.8519V45H51.8819Z" fill="black"/>
<rect x="64" width="64" height="64" rx="10" fill="#FDD99D"/>
<path d="M103.556 31.72C105.508 32.136 107.076 33.112 108.26 34.648C109.444 36.152 110.036 37.88 110.036 39.832C110.036 42.648 109.044 44.888 107.06 46.552C105.108 48.184 102.372 49 98.8517 49H83.1557V15.304H98.3237C101.748 15.304 104.42 16.088 106.34 17.656C108.292 19.224 109.268 21.352 109.268 24.04C109.268 26.024 108.74 27.672 107.684 28.984C106.66 30.296 105.284 31.208 103.556 31.72ZM91.3637 28.936H96.7397C98.0837 28.936 99.1077 28.648 99.8117 28.072C100.548 27.464 100.916 26.584 100.916 25.432C100.916 24.28 100.548 23.4 99.8117 22.792C99.1077 22.184 98.0837 21.88 96.7397 21.88H91.3637V28.936ZM97.4117 42.376C98.7877 42.376 99.8437 42.072 100.58 41.464C101.348 40.824 101.732 39.912 101.732 38.728C101.732 37.544 101.332 36.616 100.532 35.944C99.7637 35.272 98.6917 34.936 97.3157 34.936H91.3637V42.376H97.4117Z" fill="black"/>
<path d="M114.89 45.63C114.924 44.9633 115.157 44.45 115.59 44.09C116.03 43.7233 116.607 43.54 117.32 43.54C117.807 43.54 118.224 43.6267 118.57 43.8C118.917 43.9667 119.177 44.1967 119.35 44.49C119.53 44.7767 119.62 45.1033 119.62 45.47C119.62 45.89 119.51 46.2467 119.29 46.54C119.077 46.8267 118.82 47.02 118.52 47.12V47.16C118.907 47.28 119.207 47.4933 119.42 47.8C119.64 48.1067 119.75 48.5 119.75 48.98C119.75 49.38 119.657 49.7367 119.47 50.05C119.29 50.3633 119.02 50.61 118.66 50.79C118.307 50.9633 117.88 51.05 117.38 51.05C116.627 51.05 116.014 50.86 115.54 50.48C115.067 50.1 114.817 49.54 114.79 48.8H116.15C116.164 49.1267 116.274 49.39 116.48 49.59C116.694 49.7833 116.984 49.88 117.35 49.88C117.69 49.88 117.95 49.7867 118.13 49.6C118.317 49.4067 118.41 49.16 118.41 48.86C118.41 48.46 118.284 48.1733 118.03 48C117.777 47.8267 117.384 47.74 116.85 47.74H116.56V46.59H116.85C117.797 46.59 118.27 46.2733 118.27 45.64C118.27 45.3533 118.184 45.13 118.01 44.97C117.844 44.81 117.6 44.73 117.28 44.73C116.967 44.73 116.724 44.8167 116.55 44.99C116.384 45.1567 116.287 45.37 116.26 45.63H114.89Z" fill="black"/>
<rect x="128" width="64" height="64" rx="10" fill="#FDD99D"/>
<path d="M143.303 32.104C143.303 28.776 144.023 25.816 145.463 23.224C146.903 20.6 148.903 18.568 151.463 17.128C154.055 15.656 156.983 14.92 160.247 14.92C164.247 14.92 167.671 15.976 170.519 18.088C173.367 20.2 175.271 23.08 176.231 26.728H167.207C166.535 25.32 165.575 24.248 164.327 23.512C163.111 22.776 161.719 22.408 160.151 22.408C157.623 22.408 155.575 23.288 154.007 25.048C152.439 26.808 151.655 29.16 151.655 32.104C151.655 35.048 152.439 37.4 154.007 39.16C155.575 40.92 157.623 41.8 160.151 41.8C161.719 41.8 163.111 41.432 164.327 40.696C165.575 39.96 166.535 38.888 167.207 37.48H176.231C175.271 41.128 173.367 44.008 170.519 46.12C167.671 48.2 164.247 49.24 160.247 49.24C156.983 49.24 154.055 48.52 151.463 47.08C148.903 45.608 146.903 43.576 145.463 40.984C144.023 38.392 143.303 35.432 143.303 32.104Z" fill="black"/>
<path d="M178.498 49.58V48.48L181.768 43.8H183.398V48.36H184.278V49.58H183.398V51H181.998V49.58H178.498ZM182.088 45.3L180.038 48.36H182.088V45.3Z" fill="black"/>
<rect x="192" width="64" height="64" rx="10" fill="#FDD99D"/>
<path d="M222.163 15.304C225.715 15.304 228.819 16.008 231.475 17.416C234.131 18.824 236.179 20.808 237.619 23.368C239.091 25.896 239.827 28.824 239.827 32.152C239.827 35.448 239.091 38.376 237.619 40.936C236.179 43.496 234.115 45.48 231.427 46.888C228.771 48.296 225.683 49 222.163 49H209.539V15.304H222.163ZM221.635 41.896C224.739 41.896 227.155 41.048 228.883 39.352C230.611 37.656 231.475 35.256 231.475 32.152C231.475 29.048 230.611 26.632 228.883 24.904C227.155 23.176 224.739 22.312 221.635 22.312H217.747V41.896H221.635Z" fill="black"/>
<path d="M242.89 45.63C242.924 44.9633 243.157 44.45 243.59 44.09C244.03 43.7233 244.607 43.54 245.32 43.54C245.807 43.54 246.224 43.6267 246.57 43.8C246.917 43.9667 247.177 44.1967 247.35 44.49C247.53 44.7767 247.62 45.1033 247.62 45.47C247.62 45.89 247.51 46.2467 247.29 46.54C247.077 46.8267 246.82 47.02 246.52 47.12V47.16C246.907 47.28 247.207 47.4933 247.42 47.8C247.64 48.1067 247.75 48.5 247.75 48.98C247.75 49.38 247.657 49.7367 247.47 50.05C247.29 50.3633 247.02 50.61 246.66 50.79C246.307 50.9633 245.88 51.05 245.38 51.05C244.627 51.05 244.014 50.86 243.54 50.48C243.067 50.1 242.817 49.54 242.79 48.8H244.15C244.164 49.1267 244.274 49.39 244.48 49.59C244.694 49.7833 244.984 49.88 245.35 49.88C245.69 49.88 245.95 49.7867 246.13 49.6C246.317 49.4067 246.41 49.16 246.41 48.86C246.41 48.46 246.284 48.1733 246.03 48C245.777 47.8267 245.384 47.74 244.85 47.74H244.56V46.59H244.85C245.797 46.59 246.27 46.2733 246.27 45.64C246.27 45.3533 246.184 45.13 246.01 44.97C245.844 44.81 245.6 44.73 245.28 44.73C244.967 44.73 244.724 44.8167 244.55 44.99C244.384 45.1567 244.287 45.37 244.26 45.63H242.89Z" fill="black"/>
<rect x="256" width="64" height="64" rx="10" fill="#FDD99D"/>
<path d="M286.2 21.88V28.696H297.192V35.032H286.2V42.424H298.632V49H277.992V15.304H298.632V21.88H286.2Z" fill="black"/>
<path d="M307.882 45V43.71H310.292V51H308.852V45H307.882Z" fill="black"/>
<rect x="320" width="64" height="64" rx="10" fill="#FDD99D"/>
<path d="M363.787 15.304V21.88H350.059V28.984H360.331V35.368H350.059V49H341.851V15.304H363.787Z" fill="black"/>
<path d="M375.546 44.92H372.306V46.63C372.446 46.4567 372.646 46.3167 372.906 46.21C373.166 46.0967 373.442 46.04 373.736 46.04C374.269 46.04 374.706 46.1567 375.046 46.39C375.386 46.6233 375.632 46.9233 375.786 47.29C375.939 47.65 376.016 48.0367 376.016 48.45C376.016 49.2167 375.796 49.8333 375.356 50.3C374.922 50.7667 374.302 51 373.496 51C372.736 51 372.129 50.81 371.676 50.43C371.222 50.05 370.966 49.5533 370.906 48.94H372.266C372.326 49.2067 372.459 49.42 372.666 49.58C372.879 49.74 373.149 49.82 373.476 49.82C373.869 49.82 374.166 49.6967 374.366 49.45C374.566 49.2033 374.666 48.8767 374.666 48.47C374.666 48.0567 374.562 47.7433 374.356 47.53C374.156 47.31 373.859 47.2 373.466 47.2C373.186 47.2 372.952 47.27 372.766 47.41C372.579 47.55 372.446 47.7367 372.366 47.97H371.026V43.69H375.546V44.92Z" fill="black"/>
<rect x="384" width="64" height="64" rx="10" fill="#FDD99D"/>
<path d="M423.063 25.96C422.455 24.84 421.575 23.992 420.423 23.416C419.303 22.808 417.975 22.504 416.439 22.504C413.783 22.504 411.655 23.384 410.055 25.144C408.455 26.872 407.655 29.192 407.655 32.104C407.655 35.208 408.487 37.64 410.151 39.4C411.847 41.128 414.167 41.992 417.111 41.992C419.127 41.992 420.823 41.48 422.199 40.456C423.607 39.432 424.631 37.96 425.271 36.04H414.855V29.992H432.711V37.624C432.103 39.672 431.063 41.576 429.591 43.336C428.151 45.096 426.311 46.52 424.071 47.608C421.831 48.696 419.303 49.24 416.487 49.24C413.159 49.24 410.183 48.52 407.559 47.08C404.967 45.608 402.935 43.576 401.463 40.984C400.023 38.392 399.303 35.432 399.303 32.104C399.303 28.776 400.023 25.816 401.463 23.224C402.935 20.6 404.967 18.568 407.559 17.128C410.151 15.656 413.111 14.92 416.439 14.92C420.471 14.92 423.863 15.896 426.615 17.848C429.399 19.8 431.239 22.504 432.135 25.96H423.063Z" fill="black"/>
<path d="M435.432 49.42C436.072 48.8867 436.582 48.4433 436.962 48.09C437.342 47.73 437.659 47.3567 437.912 46.97C438.166 46.5833 438.292 46.2033 438.292 45.83C438.292 45.49 438.212 45.2233 438.052 45.03C437.892 44.8367 437.646 44.74 437.312 44.74C436.979 44.74 436.722 44.8533 436.542 45.08C436.362 45.3 436.269 45.6033 436.262 45.99H434.902C434.929 45.19 435.166 44.5833 435.612 44.17C436.066 43.7567 436.639 43.55 437.332 43.55C438.092 43.55 438.676 43.7533 439.082 44.16C439.489 44.56 439.692 45.09 439.692 45.75C439.692 46.27 439.552 46.7667 439.272 47.24C438.992 47.7133 438.672 48.1267 438.312 48.48C437.952 48.8267 437.482 49.2467 436.902 49.74H439.852V50.9H434.912V49.86L435.432 49.42Z" fill="black"/>
<rect x="448" width="64" height="64" rx="10" fill="#FDD99D"/>
<path d="M494.605 15.304V49H486.397V35.128H473.629V49H465.421V15.304H473.629V28.504H486.397V15.304H494.605Z" fill="black"/>
<path d="M498.89 45.63C498.924 44.9633 499.157 44.45 499.59 44.09C500.03 43.7233 500.607 43.54 501.32 43.54C501.807 43.54 502.224 43.6267 502.57 43.8C502.917 43.9667 503.177 44.1967 503.35 44.49C503.53 44.7767 503.62 45.1033 503.62 45.47C503.62 45.89 503.51 46.2467 503.29 46.54C503.077 46.8267 502.82 47.02 502.52 47.12V47.16C502.907 47.28 503.207 47.4933 503.42 47.8C503.64 48.1067 503.75 48.5 503.75 48.98C503.75 49.38 503.657 49.7367 503.47 50.05C503.29 50.3633 503.02 50.61 502.66 50.79C502.307 50.9633 501.88 51.05 501.38 51.05C500.627 51.05 500.014 50.86 499.54 50.48C499.067 50.1 498.817 49.54 498.79 48.8H500.15C500.164 49.1267 500.274 49.39 500.48 49.59C500.694 49.7833 500.984 49.88 501.35 49.88C501.69 49.88 501.95 49.7867 502.13 49.6C502.317 49.4067 502.41 49.16 502.41 48.86C502.41 48.46 502.284 48.1733 502.03 48C501.777 47.8267 501.384 47.74 500.85 47.74H500.56V46.59H500.85C501.797 46.59 502.27 46.2733 502.27 45.64C502.27 45.3533 502.184 45.13 502.01 44.97C501.844 44.81 501.6 44.73 501.28 44.73C500.967 44.73 500.724 44.8167 500.55 44.99C500.384 45.1567 500.287 45.37 500.26 45.63H498.89Z" fill="black"/>
<rect x="512" width="64" height="64" rx="10" fill="#FDD99D"/>
<path d="M548.106 15.304V49H539.898V15.304H548.106Z" fill="black"/>
<path d="M563.882 45V43.71H566.292V51H564.852V45H563.882Z" fill="black"/>
<rect x="576" width="64" height="64" rx="10" fill="#FDD99D"/>
<path d="M618.221 15.304V38.248C618.221 41.8 617.213 44.536 615.197 46.456C613.213 48.376 610.525 49.336 607.133 49.336C603.581 49.336 600.733 48.328 598.589 46.312C596.445 44.296 595.373 41.432 595.373 37.72H603.533C603.533 39.128 603.821 40.2 604.397 40.936C604.973 41.64 605.805 41.992 606.893 41.992C607.885 41.992 608.653 41.672 609.197 41.032C609.741 40.392 610.013 39.464 610.013 38.248V15.304H618.221Z" fill="black"/>
<path d="M631.546 44.92H628.306V46.63C628.446 46.4567 628.646 46.3167 628.906 46.21C629.166 46.0967 629.442 46.04 629.736 46.04C630.269 46.04 630.706 46.1567 631.046 46.39C631.386 46.6233 631.632 46.9233 631.786 47.29C631.939 47.65 632.016 48.0367 632.016 48.45C632.016 49.2167 631.796 49.8333 631.356 50.3C630.922 50.7667 630.302 51 629.496 51C628.736 51 628.129 50.81 627.676 50.43C627.222 50.05 626.966 49.5533 626.906 48.94H628.266C628.326 49.2067 628.459 49.42 628.666 49.58C628.879 49.74 629.149 49.82 629.476 49.82C629.869 49.82 630.166 49.6967 630.366 49.45C630.566 49.2033 630.666 48.8767 630.666 48.47C630.666 48.0567 630.562 47.7433 630.356 47.53C630.156 47.31 629.859 47.2 629.466 47.2C629.186 47.2 628.952 47.27 628.766 47.41C628.579 47.55 628.446 47.7367 628.366 47.97H627.026V43.69H631.546V44.92Z" fill="black"/>
<rect x="640" width="64" height="64" rx="10" fill="#FDD99D"/>
<path d="M677.778 49L666.45 34.12V49H658.242V15.304H666.45V30.088L677.682 15.304H687.33L674.274 31.816L687.81 49H677.778Z" fill="black"/>
<path d="M691.432 49.42C692.072 48.8867 692.582 48.4433 692.962 48.09C693.342 47.73 693.659 47.3567 693.912 46.97C694.166 46.5833 694.292 46.2033 694.292 45.83C694.292 45.49 694.212 45.2233 694.052 45.03C693.892 44.8367 693.646 44.74 693.312 44.74C692.979 44.74 692.722 44.8533 692.542 45.08C692.362 45.3 692.269 45.6033 692.262 45.99H690.902C690.929 45.19 691.166 44.5833 691.612 44.17C692.066 43.7567 692.639 43.55 693.332 43.55C694.092 43.55 694.676 43.7533 695.082 44.16C695.489 44.56 695.692 45.09 695.692 45.75C695.692 46.27 695.552 46.7667 695.272 47.24C694.992 47.7133 694.672 48.1267 694.312 48.48C693.952 48.8267 693.482 49.2467 692.902 49.74H695.852V50.9H690.912V49.86L691.432 49.42Z" fill="black"/>
<rect y="64" width="64" height="64" rx="10" fill="#FDD99D"/>
<path d="M31.7465 106.664H42.4985V113H23.5385V79.304H31.7465V106.664Z" fill="black"/>
<path d="M51.4323 113.42C52.0723 112.887 52.5823 112.443 52.9623 112.09C53.3423 111.73 53.6589 111.357 53.9123 110.97C54.1656 110.583 54.2923 110.203 54.2923 109.83C54.2923 109.49 54.2123 109.223 54.0523 109.03C53.8923 108.837 53.6456 108.74 53.3123 108.74C52.9789 108.74 52.7223 108.853 52.5423 109.08C52.3623 109.3 52.2689 109.603 52.2623 109.99H50.9023C50.9289 109.19 51.1656 108.583 51.6123 108.17C52.0656 107.757 52.6389 107.55 53.3323 107.55C54.0923 107.55 54.6756 107.753 55.0823 108.16C55.4889 108.56 55.6923 109.09 55.6923 109.75C55.6923 110.27 55.5523 110.767 55.2723 111.24C54.9923 111.713 54.6723 112.127 54.3123 112.48C53.9523 112.827 53.4823 113.247 52.9023 113.74H55.8523V114.9H50.9123V113.86L51.4323 113.42Z" fill="black"/>
<rect x="64" y="64" width="64" height="64" rx="10" fill="#FDD99D"/>
<path d="M115.105 79.304V113H106.897V92.792L99.3608 113H92.7368L85.1528 92.744V113H76.9448V79.304H86.6407L96.0968 102.632L105.457 79.304H115.105Z" fill="black"/>
<path d="M115.882 109V107.71H118.292V115H116.852V109H115.882Z" fill="black"/>
<rect x="128" y="64" width="64" height="64" rx="10" fill="#FDD99D"/>
<path d="M175.073 113H166.865L153.137 92.216V113H144.929V79.304H153.137L166.865 100.184V79.304H175.073V113Z" fill="black"/>
<path d="M179.882 109V107.71H182.292V115H180.852V109H179.882Z" fill="black"/>
<rect x="192" y="64" width="64" height="64" rx="10" fill="#FDD99D"/>
<path d="M224.045 113.336C220.877 113.336 217.965 112.6 215.309 111.128C212.685 109.656 210.589 107.608 209.021 104.984C207.485 102.328 206.717 99.352 206.717 96.056C206.717 92.76 207.485 89.8 209.021 87.176C210.589 84.552 212.685 82.504 215.309 81.032C217.965 79.56 220.877 78.824 224.045 78.824C227.213 78.824 230.109 79.56 232.733 81.032C235.389 82.504 237.469 84.552 238.973 87.176C240.509 89.8 241.277 92.76 241.277 96.056C241.277 99.352 240.509 102.328 238.973 104.984C237.437 107.608 235.357 109.656 232.733 111.128C230.109 112.6 227.213 113.336 224.045 113.336ZM224.045 105.848C226.733 105.848 228.877 104.952 230.477 103.16C232.109 101.368 232.925 99 232.925 96.056C232.925 93.08 232.109 90.712 230.477 88.952C228.877 87.16 226.733 86.264 224.045 86.264C221.325 86.264 219.149 87.144 217.517 88.904C215.917 90.664 215.117 93.048 215.117 96.056C215.117 99.032 215.917 101.416 217.517 103.208C219.149 104.968 221.325 105.848 224.045 105.848Z" fill="black"/>
<path d="M243.882 109V107.71H246.292V115H244.852V109H243.882Z" fill="black"/>
<rect x="256" y="64" width="64" height="64" rx="10" fill="#FDD99D"/>
<path d="M301.679 90.152C301.679 92.104 301.231 93.896 300.335 95.528C299.439 97.128 298.063 98.424 296.207 99.416C294.351 100.408 292.047 100.904 289.295 100.904H284.207V113H275.999V79.304H289.295C291.983 79.304 294.255 79.768 296.111 80.696C297.967 81.624 299.359 82.904 300.287 84.536C301.215 86.168 301.679 88.04 301.679 90.152ZM288.671 94.376C290.239 94.376 291.407 94.008 292.175 93.272C292.943 92.536 293.327 91.496 293.327 90.152C293.327 88.808 292.943 87.768 292.175 87.032C291.407 86.296 290.239 85.928 288.671 85.928H284.207V94.376H288.671Z" fill="black"/>
<path d="M306.89 109.63C306.924 108.963 307.157 108.45 307.59 108.09C308.03 107.723 308.607 107.54 309.32 107.54C309.807 107.54 310.224 107.627 310.57 107.8C310.917 107.967 311.177 108.197 311.35 108.49C311.53 108.777 311.62 109.103 311.62 109.47C311.62 109.89 311.51 110.247 311.29 110.54C311.077 110.827 310.82 111.02 310.52 111.12V111.16C310.907 111.28 311.207 111.493 311.42 111.8C311.64 112.107 311.75 112.5 311.75 112.98C311.75 113.38 311.657 113.737 311.47 114.05C311.29 114.363 311.02 114.61 310.66 114.79C310.307 114.963 309.88 115.05 309.38 115.05C308.627 115.05 308.014 114.86 307.54 114.48C307.067 114.1 306.817 113.54 306.79 112.8H308.15C308.164 113.127 308.274 113.39 308.48 113.59C308.694 113.783 308.984 113.88 309.35 113.88C309.69 113.88 309.95 113.787 310.13 113.6C310.317 113.407 310.41 113.16 310.41 112.86C310.41 112.46 310.284 112.173 310.03 112C309.777 111.827 309.384 111.74 308.85 111.74H308.56V110.59H308.85C309.797 110.59 310.27 110.273 310.27 109.64C310.27 109.353 310.184 109.13 310.01 108.97C309.844 108.81 309.6 108.73 309.28 108.73C308.967 108.73 308.724 108.817 308.55 108.99C308.384 109.157 308.287 109.37 308.26 109.63H306.89Z" fill="black"/>
<rect x="320" y="64" width="64" height="64" rx="10" fill="#FDD99D"/>
<path d="M360.062 118.76L355.742 112.952C354.462 113.208 353.214 113.336 351.998 113.336C348.83 113.336 345.918 112.6 343.262 111.128C340.638 109.656 338.542 107.608 336.974 104.984C335.438 102.328 334.67 99.352 334.67 96.056C334.67 92.76 335.438 89.8 336.974 87.176C338.542 84.552 340.638 82.504 343.262 81.032C345.918 79.56 348.83 78.824 351.998 78.824C355.166 78.824 358.062 79.56 360.686 81.032C363.342 82.504 365.422 84.552 366.926 87.176C368.462 89.8 369.23 92.76 369.23 96.056C369.23 98.936 368.638 101.576 367.454 103.976C366.302 106.344 364.686 108.312 362.606 109.88L369.998 118.76H360.062ZM343.07 96.056C343.07 99.032 343.87 101.416 345.47 103.208C347.102 104.968 349.278 105.848 351.998 105.848C354.686 105.848 356.83 104.952 358.43 103.16C360.062 101.368 360.878 99 360.878 96.056C360.878 93.08 360.062 90.712 358.43 88.952C356.83 87.16 354.686 86.264 351.998 86.264C349.278 86.264 347.102 87.144 345.47 88.904C343.87 90.664 343.07 93.048 343.07 96.056Z" fill="black"/>
<path d="M371.87 111.14C371.204 110.793 370.87 110.257 370.87 109.53C370.87 109.17 370.96 108.843 371.14 108.55C371.327 108.25 371.604 108.013 371.97 107.84C372.344 107.66 372.797 107.57 373.33 107.57C373.864 107.57 374.314 107.66 374.68 107.84C375.054 108.013 375.33 108.25 375.51 108.55C375.697 108.843 375.79 109.17 375.79 109.53C375.79 109.897 375.7 110.22 375.52 110.5C375.34 110.773 375.1 110.987 374.8 111.14C375.167 111.3 375.454 111.533 375.66 111.84C375.867 112.147 375.97 112.51 375.97 112.93C375.97 113.383 375.854 113.78 375.62 114.12C375.394 114.453 375.08 114.71 374.68 114.89C374.28 115.07 373.83 115.16 373.33 115.16C372.83 115.16 372.38 115.07 371.98 114.89C371.587 114.71 371.274 114.453 371.04 114.12C370.814 113.78 370.7 113.383 370.7 112.93C370.7 112.51 370.804 112.147 371.01 111.84C371.217 111.527 371.504 111.293 371.87 111.14ZM374.43 109.73C374.43 109.403 374.33 109.15 374.13 108.97C373.937 108.79 373.67 108.7 373.33 108.7C372.997 108.7 372.73 108.79 372.53 108.97C372.337 109.15 372.24 109.407 372.24 109.74C372.24 110.04 372.34 110.28 372.54 110.46C372.747 110.64 373.01 110.73 373.33 110.73C373.65 110.73 373.914 110.64 374.12 110.46C374.327 110.273 374.43 110.03 374.43 109.73ZM373.33 111.75C372.95 111.75 372.64 111.847 372.4 112.04C372.167 112.233 372.05 112.51 372.05 112.87C372.05 113.203 372.164 113.477 372.39 113.69C372.624 113.897 372.937 114 373.33 114C373.724 114 374.034 113.893 374.26 113.68C374.487 113.467 374.6 113.197 374.6 112.87C374.6 112.517 374.484 112.243 374.25 112.05C374.017 111.85 373.71 111.75 373.33 111.75Z" fill="black"/>
<rect x="384" y="64" width="64" height="64" rx="10" fill="#FDD99D"/>
<path d="M420.504 113L413.496 100.28H411.528V113H403.32V79.304H417.096C419.752 79.304 422.008 79.768 423.864 80.696C425.752 81.624 427.16 82.904 428.088 84.536C429.016 86.136 429.48 87.928 429.48 89.912C429.48 92.152 428.84 94.152 427.56 95.912C426.312 97.672 424.456 98.92 421.992 99.656L429.768 113H420.504ZM411.528 94.472H416.616C418.12 94.472 419.24 94.104 419.976 93.368C420.744 92.632 421.128 91.592 421.128 90.248C421.128 88.968 420.744 87.96 419.976 87.224C419.24 86.488 418.12 86.12 416.616 86.12H411.528V94.472Z" fill="black"/>
<path d="M435.432 113.42C436.072 112.887 436.582 112.443 436.962 112.09C437.342 111.73 437.659 111.357 437.912 110.97C438.166 110.583 438.292 110.203 438.292 109.83C438.292 109.49 438.212 109.223 438.052 109.03C437.892 108.837 437.646 108.74 437.312 108.74C436.979 108.74 436.722 108.853 436.542 109.08C436.362 109.3 436.269 109.603 436.262 109.99H434.902C434.929 109.19 435.166 108.583 435.612 108.17C436.066 107.757 436.639 107.55 437.332 107.55C438.092 107.55 438.676 107.753 439.082 108.16C439.489 108.56 439.692 109.09 439.692 109.75C439.692 110.27 439.552 110.767 439.272 111.24C438.992 111.713 438.672 112.127 438.312 112.48C437.952 112.827 437.482 113.247 436.902 113.74H439.852V114.9H434.912V113.86L435.432 113.42Z" fill="black"/>
<rect x="448" y="64" width="64" height="64" rx="10" fill="#FDD99D"/>
<path d="M480.402 113.336C477.938 113.336 475.73 112.936 473.778 112.136C471.826 111.336 470.258 110.152 469.074 108.584C467.922 107.016 467.314 105.128 467.25 102.92H475.986C476.114 104.168 476.546 105.128 477.282 105.8C478.018 106.44 478.978 106.76 480.162 106.76C481.378 106.76 482.338 106.488 483.042 105.944C483.746 105.368 484.098 104.584 484.098 103.592C484.098 102.76 483.81 102.072 483.234 101.528C482.69 100.984 482.002 100.536 481.17 100.184C480.37 99.832 479.218 99.432 477.714 98.984C475.538 98.312 473.762 97.64 472.386 96.968C471.01 96.296 469.826 95.304 468.834 93.992C467.842 92.68 467.346 90.968 467.346 88.856C467.346 85.72 468.482 83.272 470.754 81.512C473.026 79.72 475.986 78.824 479.634 78.824C483.346 78.824 486.338 79.72 488.61 81.512C490.882 83.272 492.098 85.736 492.258 88.904H483.378C483.314 87.816 482.914 86.968 482.178 86.36C481.442 85.72 480.498 85.4 479.346 85.4C478.354 85.4 477.554 85.672 476.946 86.216C476.338 86.728 476.034 87.48 476.034 88.472C476.034 89.56 476.546 90.408 477.57 91.016C478.594 91.624 480.194 92.28 482.37 92.984C484.546 93.72 486.306 94.424 487.65 95.096C489.026 95.768 490.21 96.744 491.202 98.024C492.194 99.304 492.69 100.952 492.69 102.968C492.69 104.888 492.194 106.632 491.202 108.2C490.242 109.768 488.834 111.016 486.978 111.944C485.122 112.872 482.93 113.336 480.402 113.336Z" fill="black"/>
<path d="M499.432 113.42C500.072 112.887 500.582 112.443 500.962 112.09C501.342 111.73 501.659 111.357 501.912 110.97C502.166 110.583 502.292 110.203 502.292 109.83C502.292 109.49 502.212 109.223 502.052 109.03C501.892 108.837 501.646 108.74 501.312 108.74C500.979 108.74 500.722 108.853 500.542 109.08C500.362 109.3 500.269 109.603 500.262 109.99H498.902C498.929 109.19 499.166 108.583 499.612 108.17C500.066 107.757 500.639 107.55 501.332 107.55C502.092 107.55 502.676 107.753 503.082 108.16C503.489 108.56 503.692 109.09 503.692 109.75C503.692 110.27 503.552 110.767 503.272 111.24C502.992 111.713 502.672 112.127 502.312 112.48C501.952 112.827 501.482 113.247 500.902 113.74H503.852V114.9H498.912V113.86L499.432 113.42Z" fill="black"/>
<rect x="512" y="64" width="64" height="64" rx="10" fill="#FDD99D"/>
<path d="M557.036 79.304V85.88H548.108V113H539.9V85.88H530.972V79.304H557.036Z" fill="black"/>
<path d="M563.432 113.42C564.072 112.887 564.582 112.443 564.962 112.09C565.342 111.73 565.659 111.357 565.912 110.97C566.166 110.583 566.292 110.203 566.292 109.83C566.292 109.49 566.212 109.223 566.052 109.03C565.892 108.837 565.646 108.74 565.312 108.74C564.979 108.74 564.722 108.853 564.542 109.08C564.362 109.3 564.269 109.603 564.262 109.99H562.902C562.929 109.19 563.166 108.583 563.612 108.17C564.066 107.757 564.639 107.55 565.332 107.55C566.092 107.55 566.676 107.753 567.082 108.16C567.489 108.56 567.692 109.09 567.692 109.75C567.692 110.27 567.552 110.767 567.272 111.24C566.992 111.713 566.672 112.127 566.312 112.48C565.952 112.827 565.482 113.247 564.902 113.74H567.852V114.9H562.912V113.86L563.432 113.42Z" fill="black"/>
<rect x="576" y="64" width="64" height="64" rx="10" fill="#FDD99D"/>
<path d="M602.118 79.304V99.464C602.118 101.48 602.614 103.032 603.606 104.12C604.598 105.208 606.054 105.752 607.974 105.752C609.894 105.752 611.366 105.208 612.39 104.12C613.414 103.032 613.926 101.48 613.926 99.464V79.304H622.134V99.416C622.134 102.424 621.494 104.968 620.214 107.048C618.934 109.128 617.206 110.696 615.03 111.752C612.886 112.808 610.486 113.336 607.83 113.336C605.174 113.336 602.79 112.824 600.678 111.8C598.598 110.744 596.95 109.176 595.734 107.096C594.518 104.984 593.91 102.424 593.91 99.416V79.304H602.118Z" fill="black"/>
<path d="M627.882 109V107.71H630.292V115H628.852V109H627.882Z" fill="black"/>
<rect x="640" y="64" width="64" height="64" rx="10" fill="#FDD99D"/>
<path d="M689.077 79.304L677.125 113H666.853L654.901 79.304H663.637L671.989 104.744L680.389 79.304H689.077Z" fill="black"/>
<path d="M695.546 108.92H692.306V110.63C692.446 110.457 692.646 110.317 692.906 110.21C693.166 110.097 693.442 110.04 693.736 110.04C694.269 110.04 694.706 110.157 695.046 110.39C695.386 110.623 695.632 110.923 695.786 111.29C695.939 111.65 696.016 112.037 696.016 112.45C696.016 113.217 695.796 113.833 695.356 114.3C694.922 114.767 694.302 115 693.496 115C692.736 115 692.129 114.81 691.676 114.43C691.222 114.05 690.966 113.553 690.906 112.94H692.266C692.326 113.207 692.459 113.42 692.666 113.58C692.879 113.74 693.149 113.82 693.476 113.82C693.869 113.82 694.166 113.697 694.366 113.45C694.566 113.203 694.666 112.877 694.666 112.47C694.666 112.057 694.562 111.743 694.356 111.53C694.156 111.31 693.859 111.2 693.466 111.2C693.186 111.2 692.952 111.27 692.766 111.41C692.579 111.55 692.446 111.737 692.366 111.97H691.026V107.69H695.546V108.92Z" fill="black"/>
<rect y="128" width="64" height="64" rx="10" fill="#FDD99D"/>
<path d="M56.1018 143.304L47.3178 177H37.3818L32.0058 154.824L26.4378 177H16.5018L7.95781 143.304H16.7418L21.5898 167.832L27.5898 143.304H36.6138L42.3738 167.832L47.2698 143.304H56.1018Z" fill="black"/>
<path d="M50.4977 177.58V176.48L53.7677 171.8H55.3977V176.36H56.2777V177.58H55.3977V179H53.9977V177.58H50.4977ZM54.0877 173.3L52.0377 176.36H54.0877V173.3Z" fill="black"/>
<rect x="64" y="128" width="64" height="64" rx="10" fill="#FDD99D"/>
<path d="M102.46 177L95.5958 166.68L89.5478 177H80.2358L91.0358 159.864L79.9958 143.304H89.5478L96.3158 153.48L102.268 143.304H111.58L100.876 160.296L112.012 177H102.46Z" fill="black"/>
<path d="M115.87 175.14C115.204 174.793 114.87 174.257 114.87 173.53C114.87 173.17 114.96 172.843 115.14 172.55C115.327 172.25 115.604 172.013 115.97 171.84C116.344 171.66 116.797 171.57 117.33 171.57C117.864 171.57 118.314 171.66 118.68 171.84C119.054 172.013 119.33 172.25 119.51 172.55C119.697 172.843 119.79 173.17 119.79 173.53C119.79 173.897 119.7 174.22 119.52 174.5C119.34 174.773 119.1 174.987 118.8 175.14C119.167 175.3 119.454 175.533 119.66 175.84C119.867 176.147 119.97 176.51 119.97 176.93C119.97 177.383 119.854 177.78 119.62 178.12C119.394 178.453 119.08 178.71 118.68 178.89C118.28 179.07 117.83 179.16 117.33 179.16C116.83 179.16 116.38 179.07 115.98 178.89C115.587 178.71 115.274 178.453 115.04 178.12C114.814 177.78 114.7 177.383 114.7 176.93C114.7 176.51 114.804 176.147 115.01 175.84C115.217 175.527 115.504 175.293 115.87 175.14ZM118.43 173.73C118.43 173.403 118.33 173.15 118.13 172.97C117.937 172.79 117.67 172.7 117.33 172.7C116.997 172.7 116.73 172.79 116.53 172.97C116.337 173.15 116.24 173.407 116.24 173.74C116.24 174.04 116.34 174.28 116.54 174.46C116.747 174.64 117.01 174.73 117.33 174.73C117.65 174.73 117.914 174.64 118.12 174.46C118.327 174.273 118.43 174.03 118.43 173.73ZM117.33 175.75C116.95 175.75 116.64 175.847 116.4 176.04C116.167 176.233 116.05 176.51 116.05 176.87C116.05 177.203 116.164 177.477 116.39 177.69C116.624 177.897 116.937 178 117.33 178C117.724 178 118.034 177.893 118.26 177.68C118.487 177.467 118.6 177.197 118.6 176.87C118.6 176.517 118.484 176.243 118.25 176.05C118.017 175.85 117.71 175.75 117.33 175.75Z" fill="black"/>
<rect x="128" y="128" width="64" height="64" rx="10" fill="#FDD99D"/>
<path d="M175.77 143.304L164.106 165.864V177H155.898V165.864L144.234 143.304H153.546L160.074 157.416L166.554 143.304H175.77Z" fill="black"/>
<path d="M178.498 177.58V176.48L181.768 171.8H183.398V176.36H184.278V177.58H183.398V179H181.998V177.58H178.498ZM182.088 173.3L180.038 176.36H182.088V173.3Z" fill="black"/>
<rect x="192" y="128" width="64" height="64" rx="10" fill="#FDD99D"/>
<path d="M221.415 170.28H235.911V177H212.103V170.76L226.503 150.024H212.103V143.304H235.911V149.544L221.415 170.28Z" fill="black"/>
<path d="M243.87 175.14C243.204 174.793 242.87 174.257 242.87 173.53C242.87 173.17 242.96 172.843 243.14 172.55C243.327 172.25 243.604 172.013 243.97 171.84C244.344 171.66 244.797 171.57 245.33 171.57C245.864 171.57 246.314 171.66 246.68 171.84C247.054 172.013 247.33 172.25 247.51 172.55C247.697 172.843 247.79 173.17 247.79 173.53C247.79 173.897 247.7 174.22 247.52 174.5C247.34 174.773 247.1 174.987 246.8 175.14C247.167 175.3 247.454 175.533 247.66 175.84C247.867 176.147 247.97 176.51 247.97 176.93C247.97 177.383 247.854 177.78 247.62 178.12C247.394 178.453 247.08 178.71 246.68 178.89C246.28 179.07 245.83 179.16 245.33 179.16C244.83 179.16 244.38 179.07 243.98 178.89C243.587 178.71 243.274 178.453 243.04 178.12C242.814 177.78 242.7 177.383 242.7 176.93C242.7 176.51 242.804 176.147 243.01 175.84C243.217 175.527 243.504 175.293 243.87 175.14ZM246.43 173.73C246.43 173.403 246.33 173.15 246.13 172.97C245.937 172.79 245.67 172.7 245.33 172.7C244.997 172.7 244.73 172.79 244.53 172.97C244.337 173.15 244.24 173.407 244.24 173.74C244.24 174.04 244.34 174.28 244.54 174.46C244.747 174.64 245.01 174.73 245.33 174.73C245.65 174.73 245.914 174.64 246.12 174.46C246.327 174.273 246.43 174.03 246.43 173.73ZM245.33 175.75C244.95 175.75 244.64 175.847 244.4 176.04C244.167 176.233 244.05 176.51 244.05 176.87C244.05 177.203 244.164 177.477 244.39 177.69C244.624 177.897 244.937 178 245.33 178C245.724 178 246.034 177.893 246.26 177.68C246.487 177.467 246.6 177.197 246.6 176.87C246.6 176.517 246.484 176.243 246.25 176.05C246.017 175.85 245.71 175.75 245.33 175.75Z" fill="black"/>
<rect x="256" y="128" width="64" height="64" rx="10" fill="#FDD99D"/>
<rect x="320.5" y="128.5" width="63" height="63" rx="9.5" fill="#57D5FF"/>
<rect x="320.5" y="128.5" width="63" height="63" rx="9.5" stroke="white"/>
<path d="M336.482 166.616C337.208 166.04 337.538 165.773 337.474 165.816C339.565 164.088 341.208 162.669 342.402 161.56C343.618 160.451 344.642 159.288 345.474 158.072C346.306 156.856 346.722 155.672 346.722 154.52C346.722 153.645 346.52 152.963 346.114 152.472C345.709 151.981 345.101 151.736 344.29 151.736C343.48 151.736 342.84 152.045 342.37 152.664C341.922 153.261 341.698 154.115 341.698 155.224H336.418C336.461 153.411 336.845 151.896 337.57 150.68C338.317 149.464 339.288 148.568 340.482 147.992C341.698 147.416 343.042 147.128 344.514 147.128C347.053 147.128 348.962 147.779 350.242 149.08C351.544 150.381 352.194 152.077 352.194 154.168C352.194 156.451 351.416 158.573 349.858 160.536C348.301 162.477 346.317 164.376 343.906 166.232H352.546V170.68H336.482V166.616ZM360.972 166.776H368.14V171H355.5V148.536H360.972V166.776Z" fill="#4591AC"/>
<rect x="384.5" y="128.5" width="63" height="63" rx="9.5" fill="#8BFF8B"/>
<rect x="384.5" y="128.5" width="63" height="63" rx="9.5" stroke="white"/>
<path d="M394.369 166.164C395.004 165.66 395.293 165.427 395.237 165.464C397.067 163.952 398.504 162.711 399.549 161.74C400.613 160.769 401.509 159.752 402.237 158.688C402.965 157.624 403.329 156.588 403.329 155.58C403.329 154.815 403.152 154.217 402.797 153.788C402.443 153.359 401.911 153.144 401.201 153.144C400.492 153.144 399.932 153.415 399.521 153.956C399.129 154.479 398.933 155.225 398.933 156.196H394.313C394.351 154.609 394.687 153.284 395.321 152.22C395.975 151.156 396.824 150.372 397.869 149.868C398.933 149.364 400.109 149.112 401.397 149.112C403.619 149.112 405.289 149.681 406.409 150.82C407.548 151.959 408.117 153.443 408.117 155.272C408.117 157.269 407.436 159.127 406.073 160.844C404.711 162.543 402.975 164.204 400.865 165.828H408.425V169.72H394.369V166.164ZM438.057 150.344L432.933 170H427.137L424.001 157.064L420.753 170H414.957L409.973 150.344H415.097L417.925 164.652L421.425 150.344H426.689L430.049 164.652L432.905 150.344H438.057Z" fill="#6AA56A"/>
<rect x="448.5" y="128.5" width="63" height="63" rx="9.5" fill="#FF5355"/>
<rect x="448.5" y="128.5" width="63" height="63" rx="9.5" stroke="white"/>
<path d="M458.227 155.328C458.301 153.331 458.955 151.791 460.187 150.708C461.419 149.625 463.089 149.084 465.199 149.084C466.599 149.084 467.793 149.327 468.783 149.812C469.791 150.297 470.547 150.96 471.051 151.8C471.573 152.64 471.835 153.583 471.835 154.628C471.835 155.86 471.527 156.868 470.911 157.652C470.295 158.417 469.576 158.94 468.755 159.22V159.332C469.819 159.687 470.659 160.275 471.275 161.096C471.891 161.917 472.199 162.972 472.199 164.26C472.199 165.417 471.928 166.444 471.387 167.34C470.864 168.217 470.089 168.908 469.063 169.412C468.055 169.916 466.851 170.168 465.451 170.168C463.211 170.168 461.419 169.617 460.075 168.516C458.749 167.415 458.049 165.753 457.975 163.532H462.623C462.641 164.353 462.875 165.007 463.323 165.492C463.771 165.959 464.424 166.192 465.283 166.192C466.011 166.192 466.571 165.987 466.963 165.576C467.373 165.147 467.579 164.587 467.579 163.896C467.579 163 467.289 162.356 466.711 161.964C466.151 161.553 465.245 161.348 463.995 161.348H463.099V157.456H463.995C464.947 157.456 465.712 157.297 466.291 156.98C466.888 156.644 467.187 156.056 467.187 155.216C467.187 154.544 467 154.021 466.627 153.648C466.253 153.275 465.74 153.088 465.087 153.088C464.377 153.088 463.845 153.303 463.491 153.732C463.155 154.161 462.959 154.693 462.903 155.328H458.227ZM502.536 150.344L497.412 170H491.616L488.48 157.064L485.232 170H479.436L474.452 150.344H479.576L482.404 164.652L485.904 150.344H491.168L494.528 164.652L497.384 150.344H502.536Z" fill="#A53D3F"/>
<rect x="512.5" y="128.5" width="63" height="63" rx="9.5" fill="#FF98F6"/>
<rect x="512.5" y="128.5" width="63" height="63" rx="9.5" stroke="white"/>
<path d="M528.32 154.232C528.405 151.949 529.152 150.189 530.56 148.952C531.968 147.715 533.877 147.096 536.288 147.096C537.888 147.096 539.253 147.373 540.384 147.928C541.536 148.483 542.4 149.24 542.976 150.2C543.573 151.16 543.872 152.237 543.872 153.432C543.872 154.84 543.52 155.992 542.816 156.888C542.112 157.763 541.29 158.36 540.352 158.68V158.808C541.568 159.213 542.528 159.885 543.232 160.824C543.936 161.763 544.288 162.968 544.288 164.44C544.288 165.763 543.978 166.936 543.36 167.96C542.762 168.963 541.877 169.752 540.704 170.328C539.552 170.904 538.176 171.192 536.576 171.192C534.016 171.192 531.968 170.563 530.432 169.304C528.917 168.045 528.117 166.147 528.032 163.608H533.344C533.365 164.547 533.632 165.293 534.144 165.848C534.656 166.381 535.402 166.648 536.384 166.648C537.216 166.648 537.856 166.413 538.304 165.944C538.773 165.453 539.008 164.813 539.008 164.024C539.008 163 538.677 162.264 538.016 161.816C537.376 161.347 536.341 161.112 534.911 161.112H533.888V156.664H534.911C536 156.664 536.874 156.483 537.536 156.12C538.218 155.736 538.56 155.064 538.56 154.104C538.56 153.336 538.346 152.739 537.92 152.312C537.493 151.885 536.906 151.672 536.16 151.672C535.349 151.672 534.741 151.917 534.336 152.408C533.952 152.899 533.728 153.507 533.664 154.232H528.32ZM553.519 166.776H560.687V171H548.047V148.536H553.519V166.776Z" fill="#A567A0"/>
<rect x="576.5" y="128.5" width="63" height="63" rx="9.5" fill="#F5FF39"/>
<rect x="576.5" y="128.5" width="63" height="63" rx="9.5" stroke="white"/>
<path d="M600.627 171.646L606.523 168.061L612.419 171.693L610.874 164.902L616.068 160.374L609.237 159.761L606.523 153.347L603.809 159.714L596.978 160.327L602.171 164.902L600.627 171.646ZM606.523 172.495L598.756 177.211C598.412 177.431 598.054 177.525 597.679 177.494C597.305 177.462 596.978 177.336 596.697 177.116C596.416 176.896 596.198 176.622 596.042 176.292C595.886 175.963 595.855 175.593 595.948 175.183L598.007 166.269L591.129 160.28C590.817 159.997 590.622 159.674 590.545 159.312C590.467 158.95 590.49 158.596 590.614 158.252C590.737 157.907 590.925 157.624 591.175 157.403C591.426 157.182 591.769 157.04 592.205 156.979L601.282 156.177L604.792 147.782C604.948 147.405 605.19 147.122 605.518 146.933C605.846 146.745 606.181 146.65 606.523 146.65C606.865 146.65 607.2 146.745 607.528 146.933C607.856 147.122 608.098 147.405 608.254 147.782L611.763 156.177L620.841 156.979C621.278 157.041 621.621 157.183 621.87 157.403C622.12 157.623 622.307 157.906 622.432 158.252C622.557 158.598 622.58 158.952 622.503 159.314C622.426 159.676 622.23 159.998 621.917 160.28L615.039 166.269L617.098 175.183C617.191 175.592 617.16 175.961 617.004 176.292C616.848 176.623 616.63 176.898 616.349 177.116C616.068 177.335 615.741 177.461 615.366 177.494C614.992 177.526 614.633 177.432 614.29 177.211L606.523 172.495ZM620.092 150.895L617.285 152.545C617.098 152.64 616.918 152.632 616.746 152.521C616.574 152.41 616.519 152.245 616.583 152.027L617.332 148.914L614.852 146.839C614.696 146.682 614.649 146.517 614.711 146.345C614.774 146.172 614.914 146.07 615.132 146.037L618.408 145.754L619.671 142.783C619.734 142.594 619.874 142.5 620.092 142.5C620.311 142.5 620.451 142.594 620.513 142.783L621.777 145.754L625.052 146.037C625.271 146.069 625.411 146.171 625.473 146.345C625.536 146.518 625.489 146.683 625.333 146.839L622.853 148.914L623.602 152.027C623.664 152.247 623.61 152.412 623.439 152.523C623.268 152.633 623.088 152.641 622.9 152.545L620.092 150.895Z" fill="#80816D"/>
<rect x="640.5" y="128.5" width="63" height="63" rx="9.5" fill="#FFE1BF" stroke="white"/>
</g>
<defs>
<clipPath id="clip0_74_675">
<rect width="704" height="192" fill="white"/>
</clipPath>
</defs>
</svg>
